<svg xmlns="http://www.w3.org/2000/svg" xmlns:xlink="http://www.w3.org/1999/xlink" viewBox="0 0 280.324 147.093">
  <defs><linearGradient id="a" x1="0.5" y1="1" x2="0.5" gradientUnits="objectBoundingBox"><stop offset="0" stop-color="gray" stop-opacity="0.251"/><stop offset="0.54" stop-color="gray" stop-opacity="0.122"/><stop offset="1" stop-color="gray" stop-opacity="0.102"/></linearGradient><linearGradient id="b" x1="0.5" y1="1" x2="0.5" y2="-0.001" xlink:href="#a"/></defs><g transform="translate(0 0.359)"><g transform="translate(108.741 9.872)" opacity="0.1"><ellipse cx="2.911" cy="3.811" rx="2.911" ry="3.811" transform="translate(10.97 78.67)" fill="#3f3d56"/><path d="M525.225,443.131a4.6,4.6,0,0,0,.609-2.33c0-2.105-1.3-3.811-2.913-3.811S520,438.7,520,440.806a4.606,4.606,0,0,0,.609,2.33,4.759,4.759,0,0,0,0,4.657,4.759,4.759,0,0,0,0,4.658,4.591,4.591,0,0,0-.609,2.33c0,2.1,1.3,3.811,2.911,3.811s2.913-1.708,2.913-3.811a4.589,4.589,0,0,0-.609-2.33,4.76,4.76,0,0,0,0-4.658,4.76,4.76,0,0,0,0-4.658Z" transform="translate(-509.039 -376.956)" fill="#3f3d56"/><ellipse cx="2.911" cy="3.811" rx="2.911" ry="3.811" transform="translate(10.97 55.382)" fill="#3f3d56"/><ellipse cx="2.911" cy="3.811" rx="2.911" ry="3.811" transform="translate(10.97 50.724)" fill="#3f3d56"/><path d="M480.134,224.93a13.571,13.571,0,0,1-1.084-1.6l7.647-1.256-8.272.061a13.97,13.97,0,0,1-.256-11.049l11.1,5.757-10.231-7.525a13.947,13.947,0,1,1,23.019,15.6,13.952,13.952,0,0,1,1.591,2.542l-9.932,5.172,10.586-3.553a13.947,13.947,0,0,1-2.248,13.1,13.945,13.945,0,1,1-21.92,0,13.945,13.945,0,0,1,0-17.244Z" transform="translate(-477.149 -202.271)" fill="#ff4c29"/><path d="M505.039,323.972a13.881,13.881,0,0,1-2.985,8.622,13.945,13.945,0,1,1-21.919,0C478.265,330.22,505.039,322.407,505.039,323.972Z" transform="translate(-477.149 -292.692)" opacity="0.1"/></g><g transform="translate(146.229 22.618)" opacity="0.1"><ellipse cx="2.177" cy="2.847" rx="2.177" ry="2.847" transform="translate(8.197 58.739)" fill="#3f3d56"/><path d="M659.657,431.908a3.435,3.435,0,0,0,.453-1.739c0-1.573-.975-2.849-2.174-2.849s-2.177,1.279-2.177,2.849a3.409,3.409,0,0,0,.455,1.739,3.555,3.555,0,0,0,0,3.481,3.555,3.555,0,0,0,0,3.481,3.409,3.409,0,0,0-.455,1.739c0,1.573.974,2.849,2.177,2.849s2.174-1.279,2.174-2.849a3.435,3.435,0,0,0-.453-1.739,3.581,3.581,0,0,0,0-3.481A3.581,3.581,0,0,0,659.657,431.908Z" transform="translate(-647.565 -382.505)" fill="#3f3d56"/><ellipse cx="2.177" cy="2.847" rx="2.177" ry="2.847" transform="translate(8.197 41.337)" fill="#3f3d56"/><ellipse cx="2.177" cy="2.847" rx="2.177" ry="2.847" transform="translate(8.197 37.856)" fill="#3f3d56"/><path d="M625.951,268.986a9.979,9.979,0,0,1-.811-1.192l5.717-.939-6.182.046a10.445,10.445,0,0,1-.2-8.259l8.295,4.3-7.65-5.627a10.423,10.423,0,1,1,17.211,11.663,10.542,10.542,0,0,1,1.189,1.9l-7.417,3.854,7.911-2.655a10.425,10.425,0,0,1-1.68,9.786,10.42,10.42,0,1,1-16.369,0,10.42,10.42,0,0,1,0-12.886Z" transform="translate(-623.72 -252.103)" fill="#ff4c29"/><path d="M644.575,342.854a10.376,10.376,0,0,1-2.23,6.443,10.42,10.42,0,1,1-16.369,0C624.573,347.524,644.575,341.685,644.575,342.854Z" transform="translate(-623.734 -319.528)" opacity="0.1"/></g><g transform="translate(251.561 -0.359)" opacity="0.1"><ellipse cx="2.911" cy="3.811" rx="2.911" ry="3.811" transform="translate(11.167 78.67)" fill="#3f3d56"/><path d="M1079.8,403.131a4.608,4.608,0,0,1-.609-2.33c0-2.1,1.3-3.811,2.913-3.811s2.91,1.706,2.91,3.811a4.6,4.6,0,0,1-.608,2.33,4.761,4.761,0,0,1,0,4.658,4.761,4.761,0,0,1,0,4.657,4.587,4.587,0,0,1,.608,2.33c0,2.1-1.3,3.811-2.91,3.811s-2.913-1.709-2.913-3.811a4.592,4.592,0,0,1,.609-2.33,4.761,4.761,0,0,1,0-4.657A4.761,4.761,0,0,1,1079.8,403.131Z" transform="translate(-1068.025 -336.956)" fill="#3f3d56"/><ellipse cx="2.911" cy="3.811" rx="2.911" ry="3.811" transform="translate(11.167 55.382)" fill="#3f3d56"/><ellipse cx="2.911" cy="3.811" rx="2.911" ry="3.811" transform="translate(11.167 50.724)" fill="#3f3d56"/><path d="M1060.514,184.93a13.583,13.583,0,0,0,1.085-1.6l-7.648-1.256,8.272.061a13.971,13.971,0,0,0,.255-11.049l-11.1,5.757,10.231-7.525a13.947,13.947,0,1,0-23.019,15.6,13.949,13.949,0,0,0-1.591,2.542l9.932,5.172-10.586-3.553a13.946,13.946,0,0,0,2.248,13.1,13.945,13.945,0,1,0,21.919,0,13.944,13.944,0,0,0,0-17.244Z" transform="translate(-1035.541 -162.271)" fill="#ff4c29"/><path d="M1035.809,283.972a13.882,13.882,0,0,0,2.985,8.622,13.945,13.945,0,1,0,21.92,0C1062.583,290.22,1035.809,282.407,1035.809,283.972Z" transform="translate(-1035.741 -252.692)" opacity="0.1"/></g><g transform="translate(227.062 21.083)" opacity="0.1"><ellipse cx="2.177" cy="2.847" rx="2.177" ry="2.847" transform="translate(8.301 58.739)" fill="#3f3d56"/><path d="M972.682,425.908a3.435,3.435,0,0,1-.453-1.739c0-1.573.974-2.849,2.174-2.849s2.176,1.279,2.176,2.849a3.407,3.407,0,0,1-.455,1.739,3.556,3.556,0,0,1,0,3.481,3.556,3.556,0,0,1,0,3.481,3.41,3.41,0,0,1,.455,1.739c0,1.573-.975,2.849-2.177,2.849s-2.174-1.279-2.174-2.849a3.435,3.435,0,0,1,.453-1.739,3.581,3.581,0,0,1,0-3.481A3.581,3.581,0,0,1,972.682,425.908Z" transform="translate(-963.924 -376.505)" fill="#3f3d56"/><ellipse cx="2.177" cy="2.847" rx="2.177" ry="2.847" transform="translate(8.301 41.337)" fill="#3f3d56"/><ellipse cx="2.177" cy="2.847" rx="2.177" ry="2.847" transform="translate(8.301 37.856)" fill="#3f3d56"/><path d="M958.377,262.986a9.963,9.963,0,0,0,.811-1.192l-5.716-.939,6.182.046a10.445,10.445,0,0,0,.2-8.259l-8.295,4.3,7.65-5.627A10.423,10.423,0,1,0,942,262.983a10.542,10.542,0,0,0-1.189,1.9l7.417,3.855-7.9-2.652a10.425,10.425,0,0,0,1.68,9.786,10.42,10.42,0,1,0,16.369,0,10.42,10.42,0,0,0,0-12.886Z" transform="translate(-939.756 -246.103)" fill="#ff4c29"/><path d="M939.785,336.854a10.377,10.377,0,0,0,2.23,6.443,10.42,10.42,0,1,0,16.369,0C959.786,341.524,939.785,335.685,939.785,336.854Z" transform="translate(-939.773 -313.528)" opacity="0.1"/></g><g transform="translate(1.869 -0.316)" opacity="0.1"><ellipse cx="2.911" cy="3.811" rx="2.911" ry="3.811" transform="translate(10.973 78.627)" fill="#3f3d56"/><path d="M107.422,403.131a4.6,4.6,0,0,0,.609-2.33c0-2.1-1.3-3.811-2.911-3.811s-2.911,1.706-2.911,3.811a4.6,4.6,0,0,0,.606,2.33,4.776,4.776,0,0,0,0,4.658,4.775,4.775,0,0,0,0,4.657,4.586,4.586,0,0,0-.606,2.33c0,2.1,1.3,3.811,2.911,3.811s2.918-1.7,2.918-3.806a4.588,4.588,0,0,0-.609-2.33,4.76,4.76,0,0,0,0-4.658,4.76,4.76,0,0,0,0-4.657Z" transform="translate(-91.236 -336.999)" fill="#3f3d56"/><ellipse cx="2.911" cy="3.811" rx="2.911" ry="3.811" transform="translate(10.973 55.339)" fill="#3f3d56"/><ellipse cx="2.911" cy="3.811" rx="2.911" ry="3.811" transform="translate(10.973 50.681)" fill="#3f3d56"/><path d="M62.3,185.054a13.9,13.9,0,0,1-1.084-1.6l7.65-1.256-8.279.074a13.97,13.97,0,0,1-.256-11.049l11.1,5.757L61.2,169.46a13.945,13.945,0,1,1,23.019,15.6A13.95,13.95,0,0,1,85.81,187.6l-9.934,5.159,10.589-3.553a13.962,13.962,0,0,1-2.251,13.1,13.945,13.945,0,1,1-21.92,0,13.945,13.945,0,0,1,0-17.244Z" transform="translate(-59.309 -162.439)" fill="#ff4c29"/><path d="M87.2,283.972a13.881,13.881,0,0,1-2.985,8.622,13.945,13.945,0,1,1-21.92,0C60.425,290.22,87.2,282.407,87.2,283.972Z" transform="translate(-59.309 -252.734)" opacity="0.1"/></g><g transform="translate(33.475 21.083)" opacity="0.1"><ellipse cx="2.177" cy="2.847" rx="2.177" ry="2.847" transform="translate(8.197 58.74)" fill="#3f3d56"/><path d="M218.828,425.908a3.435,3.435,0,0,0,.453-1.739c0-1.573-.972-2.849-2.174-2.849s-2.177,1.279-2.177,2.849a3.435,3.435,0,0,0,.455,1.739,3.555,3.555,0,0,0,0,3.481,3.555,3.555,0,0,0,0,3.481,3.435,3.435,0,0,0-.455,1.739c0,1.573.974,2.849,2.177,2.849s2.174-1.279,2.174-2.849a3.435,3.435,0,0,0-.453-1.739,3.581,3.581,0,0,0,0-3.481A3.581,3.581,0,0,0,218.828,425.908Z" transform="translate(-206.732 -376.505)" fill="#3f3d56"/><ellipse cx="2.177" cy="2.847" rx="2.177" ry="2.847" transform="translate(8.197 41.337)" fill="#3f3d56"/><ellipse cx="2.177" cy="2.847" rx="2.177" ry="2.847" transform="translate(8.197 37.856)" fill="#3f3d56"/><path d="M185.111,262.986a10.285,10.285,0,0,1-.811-1.192l5.716-.939-6.182.046a10.446,10.446,0,0,1-.2-8.259l8.295,4.3-7.65-5.627a10.423,10.423,0,1,1,17.211,11.663,10.262,10.262,0,0,1,1.189,1.9l-7.417,3.854,7.911-2.655a10.425,10.425,0,0,1-1.68,9.786,10.42,10.42,0,1,1-16.369,0,10.42,10.42,0,0,1,0-12.886Z" transform="translate(-182.88 -246.103)" fill="#ff4c29"/><path d="M203.735,336.854a10.377,10.377,0,0,1-2.23,6.443,10.42,10.42,0,1,1-16.369,0C183.728,341.524,203.735,335.685,203.735,336.854Z" transform="translate(-182.894 -313.528)" opacity="0.1"/></g><ellipse cx="140.162" cy="2.266" rx="140.162" ry="2.266" transform="translate(0 123.595)" fill="#ff4c29" opacity="0.1"/><ellipse cx="140.162" cy="2.266" rx="140.162" ry="2.266" transform="translate(0 142.202)" fill="#ff4c29" opacity="0.1"/><ellipse cx="140.162" cy="2.266" rx="140.162" ry="2.266" transform="translate(0 84.761)" fill="#ff4c29" opacity="0.1"/><ellipse cx="140.162" cy="2.266" rx="140.162" ry="2.266" transform="translate(0 104.177)" fill="#ff4c29" opacity="0.1"/><path d="M819.984,254.871a4.68,4.68,0,0,0-2.711.3,4,4,0,0,1-3.259,0,4.573,4.573,0,0,0-3.837.074,2.364,2.364,0,0,1-1.1.276c-1.555,0-2.847-1.565-3.115-3.629a3.039,3.039,0,0,0,.767-.836,4.365,4.365,0,0,1,7.793-.028,2.988,2.988,0,0,0,2.581,1.417h.041A3.218,3.218,0,0,1,819.984,254.871Z" transform="translate(-613.119 -226.908)" fill="#ff4c29" opacity="0.1"/><path d="M824.7,231.582l-2.512,1.591,1.535-2.773a2.482,2.482,0,0,0-1.519-.54h-.041a2.9,2.9,0,0,1-.512-.038l-.864.54.366-.665a3.016,3.016,0,0,1-1.491-1.13l-1.535.967.962-1.749a4.457,4.457,0,0,0-3.412-1.724,4.68,4.68,0,0,0-3.908,2.409,2.919,2.919,0,0,1-2.581,1.391h-.084c-1.75,0-3.166,1.982-3.166,4.427s1.417,4.43,3.166,4.43a2.4,2.4,0,0,0,1.1-.276,4.568,4.568,0,0,1,3.837-.077,3.977,3.977,0,0,0,3.258,0,4.583,4.583,0,0,1,3.8.074,2.378,2.378,0,0,0,1.09.271c1.75,0,3.167-1.985,3.167-4.43a5.611,5.611,0,0,0-.657-2.7Z" transform="translate(-613.104 -210.103)" fill="#ff4c29" opacity="0.1"/><path d="M414.711,254.9a3.284,3.284,0,0,0-1.9.207,2.794,2.794,0,0,1-2.279,0,3.192,3.192,0,0,0-2.683.054,1.693,1.693,0,0,1-.767.192c-1.087,0-1.992-1.095-2.182-2.54a2.127,2.127,0,0,0,.545-.586,3.056,3.056,0,0,1,5.456-.02,2.1,2.1,0,0,0,1.808.992h.028A2.267,2.267,0,0,1,414.711,254.9Z" transform="translate(-314.639 -228.322)" fill="#ff4c29" opacity="0.1"/><path d="M418.009,238.607l-1.757,1.115,1.067-1.941a1.726,1.726,0,0,0-1.061-.379h-.031a1.92,1.92,0,0,1-.363-.028l-.6.379.256-.465a2.123,2.123,0,0,1-1.044-.79l-1.067.675.675-1.223a3.123,3.123,0,0,0-2.389-1.21,3.272,3.272,0,0,0-2.734,1.688,2.046,2.046,0,0,1-1.808.975H407.1c-1.225,0-2.218,1.386-2.218,3.1s.992,3.1,2.218,3.1a1.662,1.662,0,0,0,.767-.194,3.2,3.2,0,0,1,2.68-.051,2.747,2.747,0,0,0,2.281.015,3.207,3.207,0,0,1,2.66.051,1.658,1.658,0,0,0,.767.189c1.223,0,2.215-1.389,2.215-3.1A3.921,3.921,0,0,0,418.009,238.607Z" transform="translate(-314.624 -216.563)" fill="#ff4c29" opacity="0.1"/><path d="M321.59,333.311a3.279,3.279,0,0,1,1.9.207,2.8,2.8,0,0,0,2.281,0,3.2,3.2,0,0,1,2.683.051,1.654,1.654,0,0,0,.767.194c1.087,0,1.992-1.1,2.179-2.542a2.086,2.086,0,0,1-.542-.586,3.059,3.059,0,0,0-5.458-.018,2.1,2.1,0,0,1-1.806.992h-.028A2.283,2.283,0,0,0,321.59,333.311Z" transform="translate(-252.637 -286.677)" fill="#ff4c29" opacity="0.1"/><path d="M307.311,317.055l1.76,1.115L308,316.231a1.737,1.737,0,0,1,1.064-.381h.028a2.171,2.171,0,0,0,.366-.026l.6.376-.256-.463a2.121,2.121,0,0,0,1.041-.79l1.067.675-.665-1.225a3.121,3.121,0,0,1,2.389-1.207,3.275,3.275,0,0,1,2.734,1.688,2.046,2.046,0,0,0,1.806.974h.061c1.223,0,2.215,1.389,2.215,3.1s-.992,3.1-2.215,3.1a1.659,1.659,0,0,1-.767-.192,3.192,3.192,0,0,0-2.683-.054,2.779,2.779,0,0,1-1.146.256,2.812,2.812,0,0,1-1.136-.24,3.2,3.2,0,0,0-2.657.051,1.657,1.657,0,0,1-.767.189c-1.225,0-2.218-1.386-2.218-3.1A3.949,3.949,0,0,1,307.311,317.055Z" transform="translate(-241.672 -274.948)" fill="#ff4c29" opacity="0.1"/><path d="M707.959,573.645c.667-1.238-.089-2.752-.959-3.854s-1.934-2.251-1.911-3.655c.033-2.018,2.177-3.213,3.888-4.282a19,19,0,0,0,3.491-2.813,5.147,5.147,0,0,0,1.072-1.437,5.814,5.814,0,0,0,.322-2.558q-.11-4.32-.427-8.635" transform="translate(-538.048 -448.517)" fill="none" stroke="#3f3d56" stroke-miterlimit="10" stroke-width="4"/><path d="M732.137,537.111a3.148,3.148,0,0,0-1.573-2.581l-.706,1.394.023-1.688a3.149,3.149,0,1,0,2.256,2.875Z" transform="translate(-553.494 -439.362)" fill="#ff4c29"/><path d="M711.181,615.9a3.149,3.149,0,0,1-5.944-1.279,3.07,3.07,0,0,1,.2-1.279,3.151,3.151,0,0,1,5.883.033l-1.967,1.6,2.164-.511A3.132,3.132,0,0,1,711.181,615.9Z" transform="translate(-538.155 -496.836)" fill="#ff4c29"/><path d="M712.816,586.952a3.149,3.149,0,0,1-1-6.177l-.018,1.3.714-1.412h0a3.149,3.149,0,1,1,.294,6.292Z" transform="translate(-541.345 -474.005)" fill="#ff4c29"/><path d="M742.665,567.069a3.149,3.149,0,1,1,1.391-5.883l-.555,1.535,1.133-1.12a3.149,3.149,0,0,1-1.98,5.466Z" transform="translate(-563.549 -459.209)" fill="#ff4c29"/><path d="M731.7,542.975c-.726.079-1.432.3-2.164.35a2.341,2.341,0,0,1-1.99-.7,10.135,10.135,0,0,1-.583-1.023,2.241,2.241,0,0,0-.793-.747,3.149,3.149,0,1,0,5.883,2.092C731.936,542.955,731.816,542.962,731.7,542.975Z" transform="translate(-553.48 -444.387)" opacity="0.1"/><path d="M742.705,572.311a3.149,3.149,0,0,1-3-4.491,2.332,2.332,0,0,1,.632.634,10.648,10.648,0,0,0,.624,1.041,2.568,2.568,0,0,0,2.09.729c.76-.038,1.494-.256,2.251-.32.1,0,.21-.015.317-.018A3.149,3.149,0,0,1,742.705,572.311Z" transform="translate(-563.589 -464.451)" opacity="0.1"/><path d="M712.82,592.373a3.149,3.149,0,0,1-3.021-4.432,2.558,2.558,0,0,1,.667.639,10.57,10.57,0,0,0,.683,1.062,2.851,2.851,0,0,0,2.228.767c.8-.033,1.535-.207,2.3-.256A3.154,3.154,0,0,1,712.82,592.373Z" transform="translate(-541.349 -479.425)" opacity="0.1"/><path d="M711.181,621.728a3.149,3.149,0,0,1-5.944-1.279,3.069,3.069,0,0,1,.2-1.279,3.142,3.142,0,0,1,.691.616c.3.363.5.767.844,1.118a3.935,3.935,0,0,0,2.606.916A13.222,13.222,0,0,0,711.181,621.728Z" transform="translate(-538.155 -502.668)" opacity="0.1"/><path d="M97.959,501.645c.668-1.238-.09-2.752-.959-3.854s-1.934-2.256-1.911-3.655c.033-2.018,2.177-3.212,3.888-4.282a19,19,0,0,0,3.491-2.814,5.149,5.149,0,0,0,1.072-1.437,5.814,5.814,0,0,0,.322-2.558q-.113-4.32-.427-8.635" transform="translate(-84.068 -394.933)" fill="none" stroke="#3f3d56" stroke-miterlimit="10" stroke-width="4"/><path d="M122.137,465.111a3.148,3.148,0,0,0-1.573-2.581l-.706,1.394.023-1.688a3.149,3.149,0,1,0,2.256,2.875Z" transform="translate(-99.514 -385.777)" fill="#ff4c29"/><path d="M101.181,543.9a3.149,3.149,0,0,1-5.944-1.279,3.069,3.069,0,0,1,.2-1.279,3.151,3.151,0,0,1,5.883.033l-1.967,1.6,2.164-.511A3.13,3.13,0,0,1,101.181,543.9Z" transform="translate(-84.175 -443.251)" fill="#ff4c29"/><path d="M102.817,514.952a3.149,3.149,0,0,1-1-6.177l-.018,1.3.714-1.412h0a3.149,3.149,0,0,1,.294,6.292Z" transform="translate(-87.365 -420.42)" fill="#ff4c29"/><path d="M132.665,495.069a3.149,3.149,0,1,1,1.391-5.883l-.555,1.535,1.133-1.12a3.149,3.149,0,0,1-1.98,5.466Z" transform="translate(-109.569 -405.625)" fill="#ff4c29"/><path d="M121.7,470.975c-.726.079-1.432.3-2.164.35a2.341,2.341,0,0,1-1.99-.7,10.1,10.1,0,0,1-.583-1.023,2.241,2.241,0,0,0-.793-.747,3.149,3.149,0,1,0,5.883,2.092C121.936,470.955,121.816,470.962,121.7,470.975Z" transform="translate(-99.5 -390.802)" opacity="0.1"/><path d="M132.705,500.311a3.149,3.149,0,0,1-3-4.491,2.329,2.329,0,0,1,.632.634,10.674,10.674,0,0,0,.624,1.041,2.569,2.569,0,0,0,2.09.729c.76-.038,1.494-.256,2.251-.32.1,0,.21-.015.317-.018A3.148,3.148,0,0,1,132.705,500.311Z" transform="translate(-109.609 -410.867)" opacity="0.1"/><path d="M102.82,520.373A3.149,3.149,0,0,1,99.8,515.94a2.56,2.56,0,0,1,.668.639,10.542,10.542,0,0,0,.683,1.062,2.852,2.852,0,0,0,2.228.767c.8-.033,1.535-.207,2.3-.256A3.154,3.154,0,0,1,102.82,520.373Z" transform="translate(-87.369 -425.841)" opacity="0.1"/><path d="M101.181,549.728a3.149,3.149,0,0,1-5.944-1.279,3.069,3.069,0,0,1,.2-1.279,3.144,3.144,0,0,1,.691.616c.3.363.5.767.844,1.118a3.935,3.935,0,0,0,2.606.916A13.25,13.25,0,0,0,101.181,549.728Z" transform="translate(-84.175 -449.083)" opacity="0.1"/><path d="M495.319,419.289c-.667-1.235.09-2.75.962-3.852s1.931-2.251,1.908-3.655c-.031-2.021-2.174-3.212-3.888-4.281a18.927,18.927,0,0,1-3.489-2.813,5.062,5.062,0,0,1-1.074-1.435,5.894,5.894,0,0,1-.322-2.558q.115-4.32.427-8.635" transform="translate(-377.532 -333.646)" fill="none" stroke="#3f3d56" stroke-miterlimit="10" stroke-width="4"/><path d="M478.38,382.752a3.146,3.146,0,0,1,1.57-2.581l.706,1.394-.02-1.688a3.229,3.229,0,0,1,1.036-.125,3.148,3.148,0,1,1-3.292,3Z" transform="translate(-369.322 -324.483)" fill="#ff4c29"/><path d="M499.328,461.462a3.148,3.148,0,1,0-.151-2.535l1.967,1.6-2.164-.512A3.131,3.131,0,0,0,499.328,461.462Z" transform="translate(-384.656 -381.883)" fill="#ff4c29"/><path d="M497.687,432.591a3.149,3.149,0,0,0,1-6.177l.015,1.3-.714-1.412h0a3.149,3.149,0,0,0-3.3,2.99,3.113,3.113,0,0,0,.136,1.074A3.146,3.146,0,0,0,497.687,432.591Z" transform="translate(-381.459 -359.124)" fill="#ff4c29"/><path d="M467.783,412.689a3.149,3.149,0,1,0-1.394-5.883l.558,1.535-1.146-1.1a3.123,3.123,0,0,0-1.023,2.174,3.048,3.048,0,0,0,.079.867A3.146,3.146,0,0,0,467.783,412.689Z" transform="translate(-359.198 -344.315)" fill="#ff4c29"/><path d="M479.023,388.615c.726.079,1.432.3,2.161.35a2.352,2.352,0,0,0,1.992-.7,10.108,10.108,0,0,0,.581-1.023,2.247,2.247,0,0,1,.8-.747,3.149,3.149,0,1,1-5.883,2.09C478.785,388.592,478.9,388.6,479.023,388.615Z" transform="translate(-369.54 -329.508)" opacity="0.1"/><path d="M468.048,417.931a3.151,3.151,0,0,0,3-4.491,2.339,2.339,0,0,0-.634.634,10.667,10.667,0,0,1-.624,1.041,2.56,2.56,0,0,1-2.087.729c-.76-.038-1.494-.256-2.251-.32-.1,0-.212-.015-.317-.018a3.146,3.146,0,0,0,2.918,2.425Z" transform="translate(-359.464 -349.557)" opacity="0.1"/><path d="M498.1,438.013a3.146,3.146,0,0,0,3.021-4.433,2.515,2.515,0,0,0-.665.639,10.527,10.527,0,0,1-.683,1.061,2.857,2.857,0,0,1-2.23.767c-.806-.033-1.535-.207-2.3-.256A3.146,3.146,0,0,0,498.1,438.013Z" transform="translate(-381.872 -364.546)" opacity="0.1"/><path d="M500.34,467.368a3.149,3.149,0,0,0,5.742-2.558,3.025,3.025,0,0,0-.691.616c-.3.363-.512.767-.844,1.118a3.941,3.941,0,0,1-2.609.916A13.823,13.823,0,0,1,500.34,467.368Z" transform="translate(-385.668 -387.788)" opacity="0.1"/><circle cx="25.567" cy="25.567" r="25.567" transform="translate(173.865 35.086)" fill="#3f3d56"/><path d="M808.8,373.5a19.375,19.375,0,0,0-4.092-2.734c-1.225-.588-1.675-.578-2.542.049-.721.512-1.189,1.005-2.018.824s-2.471-1.419-4.059-3-2.821-3.215-3-4.057.309-1.3.826-2.021c.624-.867.642-1.317.048-2.542a19.612,19.612,0,0,0-2.737-4.092c-.9-.9-1.092-.7-1.583-.512a9.157,9.157,0,0,0-1.45.767,4.376,4.376,0,0,0-1.739,1.839c-.35.747-.747,2.133,1.292,5.763a32.144,32.144,0,0,0,5.652,7.538h0a32.193,32.193,0,0,0,7.563,5.663c3.627,2.046,5.016,1.639,5.762,1.292a4.294,4.294,0,0,0,1.836-1.739,9.023,9.023,0,0,0,.767-1.45C809.5,374.588,809.7,374.388,808.8,373.5Z" transform="translate(-598.391 -306.249)" fill="#ff4c29"/><path d="M757.27,300.86a25.577,25.577,0,1,0,25.564,25.569A25.577,25.577,0,0,0,757.27,300.86Zm0,47.732a22.168,22.168,0,1,1,22.168-22.168A22.168,22.168,0,0,1,757.27,348.592Z" transform="translate(-557.838 -265.772)" opacity="0.1"/><circle cx="25.567" cy="25.567" r="25.567" transform="translate(115.127 73.919)" fill="#3f3d56"/><path d="M573.574,522.282l-7.655,7.788a.138.138,0,0,0,0,.2l5.371,5.711a.924.924,0,1,1-1.307,1.307L564.64,531.6a.146.146,0,0,0-.2,0l-1.3,1.315a5.722,5.722,0,0,1-4.092,1.721,5.848,5.848,0,0,1-4.164-1.77l-1.251-1.279a.146.146,0,0,0-.2,0l-5.33,5.678a.924.924,0,1,1-1.307-1.307l5.351-5.7a.154.154,0,0,0,0-.2l-7.655-7.788a.141.141,0,0,0-.241.1v15.584a2.282,2.282,0,0,0,2.274,2.274h25.032a2.282,2.282,0,0,0,2.274-2.274V522.382a.141.141,0,0,0-.246-.1Z" transform="translate(-418.339 -430.52)" fill="#ff4c29"/><path d="M561.572,525.641a3.872,3.872,0,0,0,2.793-1.151l11.149-11.348a2.225,2.225,0,0,0-1.407-.512h-25.05a2.209,2.209,0,0,0-1.407.512L558.8,524.49A3.856,3.856,0,0,0,561.572,525.641Z" transform="translate(-420.877 -423.377)" fill="#ff4c29"/><path d="M526.36,452.69a25.577,25.577,0,1,0,25.564,25.569A25.577,25.577,0,0,0,526.36,452.69Zm0,47.732a22.168,22.168,0,1,1,22.168-22.168A22.168,22.168,0,0,1,526.36,500.422Z" transform="translate(-385.988 -378.768)" opacity="0.1"/><circle cx="25.567" cy="25.567" r="25.567" transform="translate(54.451 54.826)" fill="#3f3d56"/><path d="M335.192,430.16,325,453.676l.951.951,9.244-4.077,9.244,4.077.951-.951Z" transform="translate(-255.175 -362.001)" fill="#ff4c29"/><path d="M290.39,378a25.577,25.577,0,1,0,25.564,25.573A25.577,25.577,0,0,0,290.39,378Zm0,47.732a18.2,18.2,0,1,1,0,.01Z" transform="translate(-210.372 -323.182)" opacity="0.1"/><path d="M805.405,571.566q-.348-.849-.714-1.693a5.018,5.018,0,0,0-.872-1.506,1.594,1.594,0,0,0-.512-.384,2.17,2.17,0,0,0-.667-.133,5.312,5.312,0,0,0-1.049-.028c-.135-.041-.289-.095-.44-.156a3.652,3.652,0,0,0,2.721-3.389v-.156a3.645,3.645,0,0,0-3.629-3.66,3.581,3.581,0,0,0-1.906.545,3.42,3.42,0,0,0-3.837,1.849A4.228,4.228,0,0,0,793.2,566v.161a3.663,3.663,0,0,0,2.972,3.742,1.7,1.7,0,0,0-.47.315,2.91,2.91,0,0,0-.632,1.928l-.038.512-.859.307a.158.158,0,0,0-.038.279l.821.586v.146a.638.638,0,0,0,.015.166,1.174,1.174,0,0,0-.317.453,2.1,2.1,0,0,0-.074.829l.031.714a5.6,5.6,0,0,0,.217,1.588c.108.317.573,1.082.908,1.087a33.091,33.091,0,0,0-.391,4.374c-.039.038.069.074.256.1.184,1.412.785,5.371,1.852,7.113a14.975,14.975,0,0,1,.4,1.729,33.11,33.11,0,0,0,.706,4.88,24.859,24.859,0,0,1,.688,3.98.391.391,0,0,0-.284.292c-.2.609-1.512,1.535-1.512,1.535a6.338,6.338,0,0,0-1.13.724c-.412.371-.4.706,1.432.5,3.53-.407,4.133-1.535,4.133-1.535s-.056-.189-.141-.435a4.728,4.728,0,0,0-.463-1.092c-.051-.048-.1.033-.164.161a21.906,21.906,0,0,1-.24-4.939,8.015,8.015,0,0,0-.4-2.949,5.582,5.582,0,0,1,0-1.931c.2-.813-.806-4.78-.806-4.78l-.578-2.921a.839.839,0,0,1,.161.34l.015.059.015.084a.159.159,0,0,0,.041.079c.394,1.637,1.473,6.172,1.473,6.837a10.849,10.849,0,0,0,1.008,2.847,19.157,19.157,0,0,0,1.108,4.676,6.778,6.778,0,0,1,.524,3.128h0a2.9,2.9,0,0,1-.322,1.038,2.471,2.471,0,0,0-.381.662l-.023.049s-.3.611-.1.713a4.953,4.953,0,0,0,2.42.3s.4-.512.4-.711a3.222,3.222,0,0,0-.046-.363c-.074-.481-.212-1.238-.215-1.245a3.489,3.489,0,0,0-.256-1.238l-.1-2.847a13.14,13.14,0,0,0-.706-5.7,9.446,9.446,0,0,1-.4-2.338c.11-.509-.2-5.9-.2-5.9l-.031-.077a5.82,5.82,0,0,1,.031-1.143,15.192,15.192,0,0,0-.4-3.862,3.349,3.349,0,0,1-.143-.842c.023-.212.092-.834.187-1.606a28.908,28.908,0,0,0,2.972-.256.37.37,0,0,0,.256-.1.359.359,0,0,0,.059-.207A9.92,9.92,0,0,0,805.405,571.566Zm-2.028,3.225c.1-.729.217-1.435.33-1.959l.015.046a14.2,14.2,0,0,1,.486,1.611A5.484,5.484,0,0,1,803.377,574.791Z" transform="translate(-603.62 -458.974)" fill="url(#a)"/><path d="M802.37,648.1s.6,5.43,1.911,7.54a14.619,14.619,0,0,1,.4,1.708,32.3,32.3,0,0,0,.7,4.824,26.62,26.62,0,0,1,.7,4.123s1.407,1.606,1.911.3a21.2,21.2,0,0,1-.3-5.228,7.871,7.871,0,0,0-.4-2.916,5.451,5.451,0,0,1,0-1.908c.2-.806-.806-4.724-.806-4.724l-.8-3.921Z" transform="translate(-610.448 -524.049)" fill="#be6f72"/><path d="M810.349,720.495s-.6,1.1-4.12,1.506c-1.826.207-1.839-.123-1.427-.491a6.38,6.38,0,0,1,1.125-.716s1.307-.9,1.507-1.506.906-.1.906-.1c1.005,1.506,1.207-.4,1.407-.2a4.533,4.533,0,0,1,.463,1.077C810.293,720.306,810.349,720.495,810.349,720.495Z" transform="translate(-612.094 -576.942)" fill="#ff6f61"/><path d="M810.349,723.672s-.6,1.1-4.12,1.506c-1.826.207-1.839-.123-1.427-.491.286.182.865.256,2.028-.212,1.675-.686,2.89-1.082,3.379-1.236C810.293,723.483,810.349,723.672,810.349,723.672Z" transform="translate(-612.094 -580.119)" opacity="0.1"/><path d="M815.326,661.369a7.872,7.872,0,0,0-.4-2.916,5.457,5.457,0,0,1,0-1.908c.2-.806-.806-4.724-.806-4.724l-.8-3.921-.7.041.8,3.88s1.005,3.918.806,4.724a5.45,5.45,0,0,0,0,1.908,7.643,7.643,0,0,1,.4,2.916,21.175,21.175,0,0,0,.3,5.228.881.881,0,0,1-.292.414.657.657,0,0,0,.995-.414A21.188,21.188,0,0,1,815.326,661.369Z" transform="translate(-618.076 -524.049)" opacity="0.1"/><path d="M800.164,562.42a3.582,3.582,0,0,0-1.9.54,3.415,3.415,0,0,0-3.837,1.829,4.163,4.163,0,0,0-1.3,3.11c0,2.138,1.44,3.87,3.215,3.87a3.246,3.246,0,0,0,2.913-2.228,3.533,3.533,0,0,0,.906.118,3.619,3.619,0,1,0,0-7.238Z" transform="translate(-603.568 -460.432)" fill="#3f3d56"/><path d="M820.5,650.65l.3.8s.3,5.328.2,5.832a9.5,9.5,0,0,0,.4,2.3,12.868,12.868,0,0,1,.7,5.627l.1,2.813s.4,1.1.2,1.307-1.716-.179-1.716-.179a7.169,7.169,0,0,0-.512-3.417,18.4,18.4,0,0,1-1.1-4.624,10.67,10.67,0,0,1-1.005-2.813c0-.8-1.609-7.338-1.609-7.338Z" transform="translate(-620.934 -526.096)" fill="#be6f72"/><path d="M801.558,631.848a25.343,25.343,0,0,1,.512-4.724,7.509,7.509,0,0,0,.448-1.6s6.085,1.1,6.589.7a8.73,8.73,0,0,0,.2,1.506,14.455,14.455,0,0,1,.4,3.821c-.11,1.207,0,1.2,0,1.2s-4.123.6-4.223,0-.4-.6-.4-.6S801.358,632.037,801.558,631.848Z" transform="translate(-609.837 -507.393)" fill="#3f3d56"/><g transform="translate(191.72 118.825)" opacity="0.1"><path d="M804.9,649.657s-2.542-.069-3.31-.207v.207c-.2.2,3.519.3,3.519.3a.255.255,0,0,1,.138.056C805.109,649.657,804.9,649.657,804.9,649.657Z" transform="translate(-801.58 -644.028)"/><path d="M820.642,629.756a8.726,8.726,0,0,1-.2-1.506.429.429,0,0,1-.172.061,5.074,5.074,0,0,0,.172,1.143,15.964,15.964,0,0,1,.4,3.821c-.11,1.207,0,1.2,0,1.2s-3.261.478-4.052.159a1.217,1.217,0,0,0,.031.143c.1.6,4.223,0,4.223,0s-.1,0,0-1.2A14.95,14.95,0,0,0,820.642,629.756Z" transform="translate(-812.899 -628.25)"/><path d="M804.9,649.657s-2.542-.069-3.31-.207v.207c-.2.2,3.519.3,3.519.3a.255.255,0,0,1,.138.056C805.109,649.657,804.9,649.657,804.9,649.657Z" transform="translate(-801.58 -644.028)"/><path d="M820.642,629.756a8.726,8.726,0,0,1-.2-1.506.429.429,0,0,1-.172.061,5.074,5.074,0,0,0,.172,1.143,15.964,15.964,0,0,1,.4,3.821c-.11,1.207,0,1.2,0,1.2s-3.261.478-4.052.159a1.217,1.217,0,0,0,.031.143c.1.6,4.223,0,4.223,0s-.1,0,0-1.2A14.95,14.95,0,0,0,820.642,629.756Z" transform="translate(-812.899 -628.25)"/></g><path d="M812.6,584.173a1.332,1.332,0,0,0,.384.5.857.857,0,0,0,.361.156c-.225.13-.471.228-.7.358a12.383,12.383,0,0,0-1.023.767,2.081,2.081,0,0,1-1.174.455,1.437,1.437,0,0,0,.164-1.43,1.337,1.337,0,0,1-.179-.5.892.892,0,0,1,.494-.665c.192-.13.389-.256.588-.381.156-.1.391-.3.588-.294s.22.182.256.361A2.844,2.844,0,0,0,812.6,584.173Z" transform="translate(-616.453 -475.852)" fill="#be6f72"/><path d="M812.6,584.173a1.332,1.332,0,0,0,.384.5.857.857,0,0,0,.361.156c-.225.13-.471.228-.7.358a12.383,12.383,0,0,0-1.023.767,2.081,2.081,0,0,1-1.174.455,1.437,1.437,0,0,0,.164-1.43,1.337,1.337,0,0,1-.179-.5.892.892,0,0,1,.494-.665c.192-.13.389-.256.588-.381.156-.1.391-.3.588-.294s.22.182.256.361A2.844,2.844,0,0,0,812.6,584.173Z" transform="translate(-616.453 -475.852)" opacity="0.1"/><circle cx="2.312" cy="2.312" r="2.312" transform="translate(196.194 109.627)" fill="#be6f72"/><path d="M832.491,722.683c0,.2-.4.7-.4.7a4.975,4.975,0,0,1-2.412-.3c-.2-.1.1-.7.1-.7l.023-.049a2.435,2.435,0,0,1,.381-.655,2.863,2.863,0,0,0,.32-1.023c.624-1.023,1.732.442,1.732.442s.141.767.215,1.233A3.493,3.493,0,0,1,832.491,722.683Z" transform="translate(-630.718 -577.925)" fill="#ff6f61"/><path d="M832.491,728.6c0,.2-.4.7-.4.7a4.978,4.978,0,0,1-2.412-.3c-.2-.1.1-.7.1-.7l.023-.049a4.858,4.858,0,0,0,2.189.45l.458-.458C832.473,728.411,832.491,728.547,832.491,728.6Z" transform="translate(-630.718 -583.841)" opacity="0.1"/><circle cx="2.261" cy="2.261" r="2.261" transform="translate(191.621 104.852)" fill="#be6f72"/><path d="M800.769,598.38a2.839,2.839,0,0,0-.629,1.906l-.077,1a5.05,5.05,0,0,0-.018.811c0,.166.041.335.056.511s.02.4.023.6v1.478a1.744,1.744,0,0,0,.164.888.6.6,0,0,0,.767.276.876.876,0,0,0,.317-.491,7.635,7.635,0,0,0,.512-1.872c.021-.223.023-.445.044-.668s.059-.455.092-.68c.143-.941.207-1.893.271-2.842.018-.281.271-1.389-.1-1.511-.179-.059-.55.125-.721.187A2.03,2.03,0,0,0,800.769,598.38Z" transform="translate(-608.711 -486.745)" fill="#be6f72"/><path d="M800.769,598.38a2.839,2.839,0,0,0-.629,1.906l-.077,1a5.05,5.05,0,0,0-.018.811c0,.166.041.335.056.511s.02.4.023.6v1.478a1.744,1.744,0,0,0,.164.888.6.6,0,0,0,.767.276.876.876,0,0,0,.317-.491,7.635,7.635,0,0,0,.512-1.872c.021-.223.023-.445.044-.668s.059-.455.092-.68c.143-.941.207-1.893.271-2.842.018-.281.271-1.389-.1-1.511-.179-.059-.55.125-.721.187A2.03,2.03,0,0,0,800.769,598.38Z" transform="translate(-608.711 -486.745)" opacity="0.1"/><path d="M808.756,588.16a12.4,12.4,0,0,1-2.714,1.609s-.6.68-.7.844-.307,1.969-.511,2.374a1.92,1.92,0,0,0,0,2.21,3.833,3.833,0,0,1,.1,1.207c-.1.3-.465,1.407-.133,1.458s1.34.752,2.243.552,4.274.767,4.274.767a48.829,48.829,0,0,1,.962-6.095l-.905-.3s-2.512-1.507-1.005-3.819C810.365,588.966,808.953,588.664,808.756,588.16Z" transform="translate(-612.01 -479.589)" fill="#ff6f61"/><path d="M796.653,609.935l2.077,1.471a.153.153,0,0,0,.181,0l.563-.422a.158.158,0,0,0,0-.24l-1.6-1.42a.153.153,0,0,0-.156-.031l-1.026.368a.156.156,0,0,0-.041.274Z" transform="translate(-606.145 -495.31)" fill="#3f3d56"/><path d="M798.811,617.634a5.57,5.57,0,0,1-.218-1.568l-.031-.708a2.046,2.046,0,0,1,.074-.818,1.338,1.338,0,0,1,.862-.755,2.973,2.973,0,0,1,1.174-.084.3.3,0,0,1,.151.041.281.281,0,0,1,.082.138.926.926,0,0,1,.046.739.767.767,0,0,1-.235.243c-.279.2-.6.333-.867.55a.316.316,0,0,0-.118.148.342.342,0,0,0,0,.161,2.575,2.575,0,0,0,.133.412.407.407,0,0,0,.115.174c.048.041.112.056.164.095.11.089.34.207.327.348a11.477,11.477,0,0,1-.465,1.591C799.775,619.329,798.959,618.066,798.811,617.634Z" transform="translate(-607.605 -498.579)" fill="#be6f72"/><g transform="translate(194.38 113.346)" opacity="0.1"><path d="M812.036,628.18h-.056a1.726,1.726,0,0,0,.657,0h.064A2.3,2.3,0,0,0,812.036,628.18Z" transform="translate(-811.98 -622.701)"/><path d="M829.957,606.83a46.418,46.418,0,0,0-.987,6.074c.353.092.586.159.586.159a48.54,48.54,0,0,1,.957-6.082Z" transform="translate(-824.624 -606.83)"/></g><path d="M816.131,593.587a.767.767,0,0,0,.33.5,4.432,4.432,0,0,1,.586.593,4.2,4.2,0,0,1,.581,1.164,14.249,14.249,0,0,1,.484,1.591c-1.279.594-2.732.565-4.092.957a3.265,3.265,0,0,0-1.535.908,2.115,2.115,0,0,0-.565,1.665.22.22,0,0,0,.031.1.215.215,0,0,0,.179.072,1.534,1.534,0,0,0,.939-.322,4.469,4.469,0,0,0,.719-.706,1.157,1.157,0,0,1,.511-.379,8.373,8.373,0,0,1,2.3-.225,29.028,29.028,0,0,0,3.43-.271.276.276,0,0,0,.307-.307,9.836,9.836,0,0,0-1.023-4.381q-.345-.841-.711-1.675a4.967,4.967,0,0,0-.87-1.489,1.538,1.538,0,0,0-.512-.378,2.168,2.168,0,0,0-.686-.128,4.865,4.865,0,0,0-1.123-.02,2.393,2.393,0,0,0-.107.581,5.036,5.036,0,0,0,.619,1.962C815.962,593.49,816.072,593.495,816.131,593.587Z" transform="translate(-617.545 -481.576)" fill="#be6f72"/><path d="M811.665,606.67a1.875,1.875,0,0,0-.256.977,1.317,1.317,0,0,0,.064.4,1.294,1.294,0,0,0,.816.767" transform="translate(-617.174 -493.365)" fill="none" stroke="#000" stroke-miterlimit="10" stroke-width="1" opacity="0.1"/><path d="M804.029,571.476a1.174,1.174,0,0,0-.371.059,2.451,2.451,0,0,0-2.046-.865c-1.223,0-2.212.632-2.212,1.409s.99,1.407,2.212,1.407a3.113,3.113,0,0,0,1.327-.281,1.2,1.2,0,1,0,1.085-1.729Z" transform="translate(-608.237 -466.572)" fill="#3f3d56"/><path d="M804.114,576.4a1.2,1.2,0,0,1-1.085-.683A3.111,3.111,0,0,1,801.7,576c-1.22,0-2.21-.629-2.21-1.407a.874.874,0,0,1,0-.141.954.954,0,0,0-.112.443c0,.767.99,1.407,2.212,1.407a3.113,3.113,0,0,0,1.327-.281,1.2,1.2,0,0,0,2.269-.3A1.2,1.2,0,0,1,804.114,576.4Z" transform="translate(-608.222 -469.386)" opacity="0.1"/><path d="M794.4,565.382a3.414,3.414,0,0,1,3.837-1.829,3.617,3.617,0,0,1,5.5,2.778v-.3a3.617,3.617,0,0,0-5.517-3.069,3.415,3.415,0,0,0-3.837,1.829,4.164,4.164,0,0,0-1.3,3.11v.3A4.093,4.093,0,0,1,794.4,565.382Z" transform="translate(-603.538 -460.433)" opacity="0.1"/><path d="M880.039,497.762c.667-1.235-.09-2.752-.962-3.854s-1.931-2.248-1.908-3.655c.031-2.018,2.174-3.21,3.888-4.282a18.91,18.91,0,0,0,3.489-2.814,5.1,5.1,0,0,0,1.074-1.435,5.892,5.892,0,0,0,.322-2.558q-.112-4.323-.427-8.635" transform="translate(-666.115 -392.045)" fill="none" stroke="#3f3d56" stroke-miterlimit="10" stroke-width="4"/><path d="M904.207,461.2a3.143,3.143,0,0,0-1.571-2.578l-.706,1.394.021-1.688a3.09,3.09,0,0,0-1.036-.125,3.149,3.149,0,1,0,3.292,3Z" transform="translate(-681.554 -382.865)" fill="#ff4c29"/><path d="M883.261,539.909a3.149,3.149,0,1,1,.151-2.537l-1.967,1.6,2.164-.512A3.134,3.134,0,0,1,883.261,539.909Z" transform="translate(-666.222 -440.264)" fill="#ff4c29"/><path d="M884.888,511.04a3.149,3.149,0,0,1-1-6.177l-.015,1.3.714-1.409h0a3.149,3.149,0,1,1,.294,6.292Z" transform="translate(-669.403 -417.51)" fill="#ff4c29"/><path d="M914.742,491.159a3.149,3.149,0,1,1,1.394-5.883l-.558,1.535,1.146-1.1a3.13,3.13,0,0,1,1.023,2.174,3.039,3.039,0,0,1-.079.867A3.149,3.149,0,0,1,914.742,491.159Z" transform="translate(-691.616 -402.714)" fill="#ff4c29"/><path d="M903.775,467.055c-.727.082-1.435.307-2.164.353a2.346,2.346,0,0,1-1.992-.7,9.764,9.764,0,0,1-.581-1.023,2.263,2.263,0,0,0-.793-.747,3.149,3.149,0,1,0,5.883,2.09C904.011,467.035,903.893,467.042,903.775,467.055Z" transform="translate(-681.544 -387.885)" opacity="0.1"/><path d="M914.78,496.4a3.151,3.151,0,0,1-2.995-4.491,2.33,2.33,0,0,1,.634.632,10.1,10.1,0,0,0,.624,1.041,2.562,2.562,0,0,0,2.087.732c.76-.036,1.494-.256,2.251-.32.1,0,.212-.018.317-.021A3.149,3.149,0,0,1,914.78,496.4Z" transform="translate(-691.653 -407.957)" opacity="0.1"/><path d="M884.888,516.438A3.146,3.146,0,0,1,881.868,512a2.593,2.593,0,0,1,.665.639c.256.345.4.744.683,1.062a2.915,2.915,0,0,0,2.23.783c.806-.018,1.535-.21,2.3-.269A3.148,3.148,0,0,1,884.888,516.438Z" transform="translate(-669.404 -422.908)" opacity="0.1"/><path d="M883.313,545.818a3.151,3.151,0,0,1-5.742-2.558,3.087,3.087,0,0,1,.691.616c.3.366.5.767.844,1.12a3.955,3.955,0,0,0,2.609.916A13.8,13.8,0,0,0,883.313,545.818Z" transform="translate(-666.274 -446.173)" opacity="0.1"/><path d="M1039.039,649.762c.668-1.235-.09-2.752-.962-3.854s-1.931-2.248-1.908-3.655c.031-2.018,2.174-3.21,3.888-4.281a18.925,18.925,0,0,0,3.489-2.813,5.1,5.1,0,0,0,1.074-1.435,5.893,5.893,0,0,0,.322-2.558q-.11-4.322-.427-8.635" transform="translate(-784.447 -505.168)" fill="none" stroke="#3f3d56" stroke-miterlimit="10" stroke-width="4"/><path d="M1063.244,613.2a3.144,3.144,0,0,0-1.57-2.578l-.706,1.394.02-1.688a3.088,3.088,0,0,0-1.023-.125,3.149,3.149,0,1,0,3.292,3Z" transform="translate(-799.923 -495.99)" fill="#ff4c29"/><path d="M1042.261,691.909a3.149,3.149,0,1,1,.151-2.537l-1.967,1.6,2.164-.512A3.129,3.129,0,0,1,1042.261,691.909Z" transform="translate(-784.554 -553.387)" fill="#ff4c29"/><path d="M1043.887,663.039a3.149,3.149,0,0,1-1-6.177l-.015,1.3.714-1.409h0a3.149,3.149,0,1,1,.294,6.292Z" transform="translate(-787.736 -530.633)" fill="#ff4c29"/><path d="M1073.742,643.159a3.149,3.149,0,1,1,1.394-5.883l-.558,1.535,1.146-1.1a3.131,3.131,0,0,1,1.023,2.174,3.044,3.044,0,0,1-.079.867A3.148,3.148,0,0,1,1073.742,643.159Z" transform="translate(-809.948 -515.837)" fill="#ff4c29"/><path d="M1062.775,619.055c-.726.082-1.435.307-2.164.353a2.346,2.346,0,0,1-1.992-.7,9.861,9.861,0,0,1-.581-1.023,2.262,2.262,0,0,0-.793-.747,3.148,3.148,0,1,0,5.883,2.09C1063.01,619.035,1062.893,619.042,1062.775,619.055Z" transform="translate(-799.877 -501.008)" opacity="0.1"/><path d="M1073.78,648.4a3.151,3.151,0,0,1-3-4.491,2.334,2.334,0,0,1,.634.632,10.122,10.122,0,0,0,.624,1.041,2.562,2.562,0,0,0,2.087.731c.76-.036,1.494-.256,2.251-.32.1,0,.212-.018.317-.021A3.148,3.148,0,0,1,1073.78,648.4Z" transform="translate(-809.986 -521.08)" opacity="0.1"/><path d="M1043.889,668.438a3.146,3.146,0,0,1-3.021-4.438,2.6,2.6,0,0,1,.665.639c.256.345.4.744.683,1.062a2.916,2.916,0,0,0,2.23.783c.806-.018,1.535-.21,2.3-.269A3.149,3.149,0,0,1,1043.889,668.438Z" transform="translate(-787.737 -536.031)" opacity="0.1"/><path d="M1042.313,697.818a3.151,3.151,0,0,1-5.742-2.558,3.085,3.085,0,0,1,.691.616c.3.366.511.767.844,1.12a3.956,3.956,0,0,0,2.609.916,13.83,13.83,0,0,0,1.6-.095Z" transform="translate(-784.606 -559.296)" opacity="0.1"/><path d="M430.217,567.012a2.509,2.509,0,0,0-1-2.026,138.662,138.662,0,0,0-4.415-5.072h0a2.488,2.488,0,0,0-.363-.084h-.432a2.88,2.88,0,0,0-2.783,2.46c-.9-.207-1.719.062-1.87.629a.768.768,0,0,0,.026.455,1.979,1.979,0,0,0,1.32,1.069l.087.026.13.033h.028a2.26,2.26,0,0,0-.215.969,2.236,2.236,0,0,0,1.2,1.995l-.059.036a.8.8,0,0,0-.194.271,4.065,4.065,0,0,0-.376.905c-.064.271-.074.552-.154.821-.148.494-.527.911-.57,1.425-.02.23.018.512-.146.66a.788.788,0,0,1-.13.092,1.056,1.056,0,0,0-.284.3.993.993,0,0,1-.2.286c-.148.11-.391.1-.463.271s.115.373.072.56-.2.222-.317.327a1.138,1.138,0,0,0-.274.511,1.678,1.678,0,0,1-1.381-.353,2.581,2.581,0,0,1,.143.511,2.244,2.244,0,0,0-.744-.373,2.35,2.35,0,0,1-.793-.588l.425-.059-1.875-2.862-.555-.115.5.954a.3.3,0,0,0-.169.2.87.87,0,0,0-.018.325,5.813,5.813,0,0,0,.128.767l.143.67c.013.061.028.125.046.187a1.764,1.764,0,0,0-.555.062,4.817,4.817,0,0,0-1.154-.274.64.64,0,0,0-.256,0,.662.662,0,0,0-.243.2,7.866,7.866,0,0,0-.857,1.207,42.144,42.144,0,0,1-3.617,4.873c-.87.353-1.747.688-2.624,1.023l-1.888.721a2.863,2.863,0,0,1-1.171.256c-.179,0-.4-.038-.512.115a1.075,1.075,0,0,0-.115.256l-.194.02h0a2.234,2.234,0,0,0-.453-.834.287.287,0,0,0-.212.164c-.046.084-.074.177-.128.256-.1.148-.276.22-.4.345s-.2.32-.343.448a1.354,1.354,0,0,1-.642.256,4.049,4.049,0,0,0-1.005.381,1.628,1.628,0,0,1-.371.171,1.4,1.4,0,0,1-.437.015l-1-.074a.782.782,0,0,0-.269.013.511.511,0,0,0-.317.511.806.806,0,0,0,.317.55,2.034,2.034,0,0,0,.568.294,16.668,16.668,0,0,0,2.66.788v.2a4.539,4.539,0,0,0,2.046.486.317.317,0,0,0,.153-.028.337.337,0,0,0,.128-.2,8.223,8.223,0,0,0,.4-1.959h0a1.019,1.019,0,0,0,.361-.092c.343-.095.685.141,1.041.179a2.843,2.843,0,0,0,1.256-.363l.179-.059a1.962,1.962,0,0,1-.414.4c-.171.123-.363.215-.529.343a3.626,3.626,0,0,1-.45.348,2.834,2.834,0,0,1-.345.133,2.288,2.288,0,0,0-.494.256,1,1,0,0,0-.335.328.491.491,0,0,0-.028.46.486.486,0,0,0,.33.23,1.36,1.36,0,0,0,.407,0c.542-.041,1.082-.089,1.622-.138a4.334,4.334,0,0,0,.678-.1c.118-.028.235-.067.353-.1a3.141,3.141,0,0,1,.616-.092.51.51,0,0,1,.179.018c.125.041.215.169.343.194a.514.514,0,0,0,.256-.033,5.693,5.693,0,0,1,1.2-.128.5.5,0,0,0,.466-.207c.082-.164-.067-.427-.133-.645a1.969,1.969,0,0,1-.056-.425,2.657,2.657,0,0,0-.3-1.008,2.636,2.636,0,0,1-.223-.46,11.634,11.634,0,0,0,2.207-1.12,3.94,3.94,0,0,1,1.258-.606,3.422,3.422,0,0,1,1.581.184,35.959,35.959,0,0,1,3.624,1.264c.565.233,1.128.478,1.711.655a2.669,2.669,0,0,0,.609.591,2.815,2.815,0,0,0,1.317.361,17.286,17.286,0,0,0,1.854.069,3.129,3.129,0,0,0,1.381-.256,1.421,1.421,0,0,0,.289-.192,1.145,1.145,0,0,0,.911-.335,2.207,2.207,0,0,0,.693-1.095c.151-.583.036-1.279.394-1.744.095-.128.22-.23.315-.358a1.007,1.007,0,0,0,.164-.591.118.118,0,0,1,.015-.023,2.168,2.168,0,0,0,.153-.588,3.364,3.364,0,0,1,.166-.466,14.4,14.4,0,0,0,.476-1.379,8.089,8.089,0,0,0,.22-.946c.038-.256.061-.511.082-.767a4.772,4.772,0,0,1,.233-1.184,9.64,9.64,0,0,0,.537-2.834v-.056a1.9,1.9,0,0,0,1.683-1.934,2.017,2.017,0,0,0-.176-.826A2.557,2.557,0,0,0,430.217,567.012Zm-9.151,11.118c.028.1.061.2.095.294-.151-.146-.3-.3-.448-.445.059.02.12.038.176.061a.947.947,0,0,1,.169.089Zm-.724-.491c-.885-.767-1.908-1.363-2.813-2.108.494.243.974.527,1.45.8q.847.483,1.716.928a1.4,1.4,0,0,1-.361.381Zm.376-1.934.044-.043v.3l-.238-.082a2.156,2.156,0,0,0,.187-.179Zm-7.783,2.072a7.315,7.315,0,0,0,.941-1.343,9.041,9.041,0,0,0,1.4,1.568C414.5,577.9,413.717,577.818,412.935,577.777Z" transform="translate(-307.959 -458.505)" fill="url(#b)"/><path d="M415.35,438.25l.558.112,1.9,2.811-.836.113Z" transform="translate(-309.116 -326.426)" fill="#2f2e41"/><path d="M414.49,645.379a10.937,10.937,0,0,0,.558,1.45,13.831,13.831,0,0,0,1.854-.529,5.861,5.861,0,0,0-.386-.512,1.906,1.906,0,0,0-.524-.4,1.443,1.443,0,0,0-.637,0C415.068,645.379,414.779,645.384,414.49,645.379Z" transform="translate(-321.776 -522.152)" fill="#fbbebe"/><path d="M402.091,643.783a1.156,1.156,0,0,1-.634-.721,2.322,2.322,0,0,0-.483-.862.276.276,0,0,0-.215.161c-.046.082-.074.174-.125.256-.1.146-.281.217-.409.34s-.2.315-.343.44a1.359,1.359,0,0,1-.647.256,4.2,4.2,0,0,0-1.023.376,1.767,1.767,0,0,1-.376.169,1.492,1.492,0,0,1-.44,0l-1.008-.072a.788.788,0,0,0-.256,0,.489.489,0,0,0-.32.512.767.767,0,0,0,.32.542,2.12,2.12,0,0,0,.573.292,16.852,16.852,0,0,0,2.7.767v.2a4.678,4.678,0,0,0,2.059.478.347.347,0,0,0,.153-.026.337.337,0,0,0,.128-.2,7.981,7.981,0,0,0,.422-2.189,1.744,1.744,0,0,0-.044-.565c-.056-.182.133-.1-.041-.177" transform="translate(-307.873 -519.807)" fill="#2f2e41"/><path d="M438.209,631.22c-2.987.179-5.939-.7-8.932-.788a4.357,4.357,0,0,0-1.11.069,5.6,5.6,0,0,0-1.1.427c-1.6.747-3.264,1.366-4.921,1.982l-1.905.709a2.886,2.886,0,0,1-1.179.256c-.182,0-.4-.038-.512.113a1.866,1.866,0,0,0,.041,1.65c.066.166.179.348.358.366a1.04,1.04,0,0,0,.363-.092c.345-.092.691.141,1.049.179a2.947,2.947,0,0,0,1.266-.358,10.981,10.981,0,0,1,2.169-.368,9.719,9.719,0,0,0,3.4-1.409,3.965,3.965,0,0,1,1.266-.6,3.506,3.506,0,0,1,1.594.182,36.592,36.592,0,0,1,3.655,1.243,17.01,17.01,0,0,0,1.908.7,6.906,6.906,0,0,0,4.279-.256c.478-.189,1-.512,1.023-1.038.018-.294-.212-.552-.363-.806-.1-.161-.2-.322-.3-.478C439.741,632.159,439.117,631.167,438.209,631.22Z" transform="translate(-324.665 -511.042)" fill="#2f2e41"/><path d="M438.209,631.22c-2.987.179-5.939-.7-8.932-.788a4.357,4.357,0,0,0-1.11.069,5.6,5.6,0,0,0-1.1.427c-1.6.747-3.264,1.366-4.921,1.982l-1.905.709a2.886,2.886,0,0,1-1.179.256c-.182,0-.4-.038-.512.113a1.866,1.866,0,0,0,.041,1.65c.066.166.179.348.358.366a1.04,1.04,0,0,0,.363-.092c.345-.092.691.141,1.049.179a2.947,2.947,0,0,0,1.266-.358,10.981,10.981,0,0,1,2.169-.368,9.719,9.719,0,0,0,3.4-1.409,3.965,3.965,0,0,1,1.266-.6,3.506,3.506,0,0,1,1.594.182,36.592,36.592,0,0,1,3.655,1.243,17.01,17.01,0,0,0,1.908.7,6.906,6.906,0,0,0,4.279-.256c.478-.189,1-.512,1.023-1.038.018-.294-.212-.552-.363-.806-.1-.161-.2-.322-.3-.478C439.741,632.159,439.117,631.167,438.209,631.22Z" transform="translate(-324.665 -511.042)" opacity="0.1"/><path d="M436.92,642.381q.7.238,1.414.44c.256-.437.767-.742.877-1.243a.118.118,0,0,0,0-.067.122.122,0,0,0-.054-.049,2.678,2.678,0,0,0-1.11-.325c-.307-.018-.448.3-.586.527C437.409,641.765,437.045,642.43,436.92,642.381Z" transform="translate(-338.469 -519.016)" fill="#fbbebe"/><path d="M426.038,642.715a1.022,1.022,0,0,1-.688-.453c-.064-.115-.136-.271-.269-.256s-.176.153-.2.274a7.67,7.67,0,0,1-.386,1.327,2.491,2.491,0,0,1-.826,1.087c-.174.12-.366.21-.537.338a3.69,3.69,0,0,1-.453.343,2.689,2.689,0,0,1-.348.128,2.413,2.413,0,0,0-.5.256.983.983,0,0,0-.34.325.468.468,0,0,0-.026.453.484.484,0,0,0,.33.225,1.394,1.394,0,0,0,.412,0c.545-.038,1.09-.087,1.634-.135a4.715,4.715,0,0,0,.683-.095l.356-.1a2.829,2.829,0,0,1,.622-.092.485.485,0,0,1,.182.018c.125.041.215.166.345.192a.577.577,0,0,0,.256-.033,5.652,5.652,0,0,1,1.21-.125.511.511,0,0,0,.471-.2c.1-.2-.066-.422-.136-.637a2.052,2.052,0,0,1-.056-.417,2.54,2.54,0,0,0-.3-.992c-.138-.256-.327-.537-.23-.808a.766.766,0,0,0,.092-.279C427.3,642.616,426.289,642.772,426.038,642.715Z" transform="translate(-326.932 -519.663)" fill="#2f2e41"/><path d="M471.1,607.157a2.333,2.333,0,0,1-1.192-1.182c-.049-.113-.089-.233-.138-.345a2.624,2.624,0,0,0-.711-.99.351.351,0,0,0-.256-.11.279.279,0,0,0-.192.207.79.79,0,0,0-.02.32,5.689,5.689,0,0,0,.128.747l.146.66a1.449,1.449,0,0,0,.09.294,1.021,1.021,0,0,0,.243.289c.133.123.269.24.4.358a1.4,1.4,0,0,0,.256.176,1.489,1.489,0,0,0,.453.133,3.852,3.852,0,0,1,1.7.655v-.491a.649.649,0,0,0-.128-.355A2.268,2.268,0,0,0,471.1,607.157Z" transform="translate(-362.031 -491.772)" fill="#fbbebe"/><path d="M471.1,607.157a2.333,2.333,0,0,1-1.192-1.182c-.049-.113-.089-.233-.138-.345a2.624,2.624,0,0,0-.711-.99.351.351,0,0,0-.256-.11.279.279,0,0,0-.192.207.79.79,0,0,0-.02.32,5.689,5.689,0,0,0,.128.747l.146.66a1.449,1.449,0,0,0,.09.294,1.021,1.021,0,0,0,.243.289c.133.123.269.24.4.358a1.4,1.4,0,0,0,.256.176,1.489,1.489,0,0,0,.453.133,3.852,3.852,0,0,1,1.7.655v-.491a.649.649,0,0,0-.128-.355A2.268,2.268,0,0,0,471.1,607.157Z" transform="translate(-362.031 -491.772)" opacity="0.1"/><ellipse cx="0.726" cy="0.732" rx="0.726" ry="0.732" transform="translate(114.421 108.873)" fill="#2f2e41"/><path d="M485.816,590.417a.592.592,0,0,0-.77.35,3.906,3.906,0,0,0-.379.89c-.064.256-.074.545-.156.808-.148.486-.529.9-.573,1.4-.02.228.018.494-.148.647a.944.944,0,0,1-.13.095.983.983,0,0,0-.286.294.968.968,0,0,1-.2.279c-.148.11-.394.1-.466.256s.115.368.072.552-.2.22-.32.322a1.117,1.117,0,0,0-.276.511,1.706,1.706,0,0,1-1.391-.345,4.429,4.429,0,0,1,.217,1.591.65.65,0,0,1-.128.491,8.867,8.867,0,0,1,1.706.3,1.176,1.176,0,0,0,.744,0,1.243,1.243,0,0,0,.343-.271,2.185,2.185,0,0,0,.7-1.084,6.375,6.375,0,0,0,.013-.734,4.138,4.138,0,0,1,.187-.893,10.622,10.622,0,0,0,.325-1.836c.033-.384.366-.691.54-1.023a5.008,5.008,0,0,0,.688-2.046C486.138,590.737,486.056,590.442,485.816,590.417Z" transform="translate(-371.118 -481.253)" fill="#2f2e41"/><path d="M485.816,590.417a.592.592,0,0,0-.77.35,3.906,3.906,0,0,0-.379.89c-.064.256-.074.545-.156.808-.148.486-.529.9-.573,1.4-.02.228.018.494-.148.647a.944.944,0,0,1-.13.095.983.983,0,0,0-.286.294.968.968,0,0,1-.2.279c-.148.11-.394.1-.466.256s.115.368.072.552-.2.22-.32.322a1.117,1.117,0,0,0-.276.511,1.706,1.706,0,0,1-1.391-.345,4.429,4.429,0,0,1,.217,1.591.65.65,0,0,1-.128.491,8.867,8.867,0,0,1,1.706.3,1.176,1.176,0,0,0,.744,0,1.243,1.243,0,0,0,.343-.271,2.185,2.185,0,0,0,.7-1.084,6.375,6.375,0,0,0,.013-.734,4.138,4.138,0,0,1,.187-.893,10.622,10.622,0,0,0,.325-1.836c.033-.384.366-.691.54-1.023a5.008,5.008,0,0,0,.688-2.046C486.138,590.737,486.056,590.442,485.816,590.417Z" transform="translate(-371.118 -481.253)" opacity="0.1"/><path d="M454.373,618.1a6.738,6.738,0,0,1-1.581-1.32c-.959-.9-2.133-1.535-3.143-2.386a22.125,22.125,0,0,0-2-1.683,5.007,5.007,0,0,0-2.146-.749.573.573,0,0,0-.256,0,.588.588,0,0,0-.243.192,7.731,7.731,0,0,0-.867,1.189,69.949,69.949,0,0,1-4.6,6.021.382.382,0,0,0-.074.143.355.355,0,0,0,.056.223l.307.6c.171.338.448.729.816.662a.893.893,0,0,0,.427-.274l1.376-1.317,1.443-1.379a11.068,11.068,0,0,0,2.256-2.665,19.864,19.864,0,0,0,1.716,1.918c.2.256.363.545.542.821.284.44.609.854.931,1.279l1.655,2.11a3.164,3.164,0,0,0,.767.767,2.929,2.929,0,0,0,1.327.356,17.538,17.538,0,0,0,1.87.067,3.224,3.224,0,0,0,1.394-.256,1.264,1.264,0,0,0,.754-1.123,1.647,1.647,0,0,0-.238-.7A5.7,5.7,0,0,0,454.373,618.1Z" transform="translate(-340.356 -497.289)" fill="#2f2e41"/><ellipse cx="0.56" cy="0.563" rx="0.56" ry="0.563" transform="translate(115.035 109.548)" fill="#e8e8f0"/><path d="M501.237,587.417a1.076,1.076,0,0,1,.061.808,3.274,3.274,0,0,1-.361.744,3.543,3.543,0,0,1-.468.665,4.819,4.819,0,0,0,2.461-.706,3.574,3.574,0,0,0,1.552-1.353.716.716,0,0,1-.573-.107,2.045,2.045,0,0,1-.437-.407l-.432-.486a1.947,1.947,0,0,1-.256-.35.966.966,0,0,1-.115-.565,3.3,3.3,0,0,1-.573.476c-.309.2-.65.348-.962.547-.107.072-.353.184-.289.327S501.15,587.264,501.237,587.417Z" transform="translate(-385.765 -477.728)" fill="#fbbebe"/><path d="M501.237,587.417a1.076,1.076,0,0,1,.061.808,3.274,3.274,0,0,1-.361.744,3.543,3.543,0,0,1-.468.665,4.819,4.819,0,0,0,2.461-.706,3.574,3.574,0,0,0,1.552-1.353.716.716,0,0,1-.573-.107,2.045,2.045,0,0,1-.437-.407l-.432-.486a1.947,1.947,0,0,1-.256-.35.966.966,0,0,1-.115-.565,3.3,3.3,0,0,1-.573.476c-.309.2-.65.348-.962.547-.107.072-.353.184-.289.327S501.15,587.264,501.237,587.417Z" transform="translate(-385.765 -477.728)" opacity="0.1"/><path d="M493.6,592.6a.729.729,0,0,0,0,.844c.026.031.118.223.156.225a.141.141,0,0,0,.1-.051,6.426,6.426,0,0,0,.547-.652,1.217,1.217,0,0,1,.7-.455,1.5,1.5,0,0,1,.959.3.908.908,0,0,1,.33.256.9.9,0,0,1,.107.366,17.641,17.641,0,0,1,.1,2.325,9.168,9.168,0,0,1-.11,1.675c-.056.284-.138.563-.176.852a5.434,5.434,0,0,0-.036.767v1.069a2.816,2.816,0,0,0,.041.586c.051.233.161.45.235.678a4.43,4.43,0,0,1,.156.8l.146,1.1a1.4,1.4,0,0,1-.13,1.023c-.095.125-.22.228-.317.353-.361.471-.256,1.143-.4,1.719a2.143,2.143,0,0,1-.7,1.074,1.159,1.159,0,0,1-.923.33,1.265,1.265,0,0,1-.842-.995,3.976,3.976,0,0,0-.432-1.3,3.44,3.44,0,0,0-.854-.714,1.476,1.476,0,0,1-.668-.867c-.028-.161,0-.327-.028-.491a1.159,1.159,0,0,0-.714-.939c-.23-.089-.512-.123-.645-.332a1.553,1.553,0,0,0,.673-.9,4.638,4.638,0,0,0,.164-1.141l.077-1.279a4.271,4.271,0,0,1,.3-1.66c.112-.23.256-.448.371-.675a7.322,7.322,0,0,0,.4-.99c.184-.527.368-1.054.532-1.586a2.993,2.993,0,0,1,.292-.739C493.146,592.936,493.346,592.647,493.6,592.6Z" transform="translate(-378.121 -482.823)" fill="#e8e8f0"/><path d="M492.254,600.27h.34l.072-.511a1.066,1.066,0,0,1,.072-.3,1.8,1.8,0,0,1,.2-.286,3.738,3.738,0,0,0,.391-1.675,8.524,8.524,0,0,1,.747-2.189l.66-1.471a2.025,2.025,0,0,0,.143-.376,2.244,2.244,0,0,0,.041-.435c0-.228.072-1.056.079-1.279,0-.084-.187-.038-.225-.113-.082-.164-.194.279-.35.376a.859.859,0,0,0-.3.445c-.143.368-.23.767-.363,1.133a2.315,2.315,0,0,1-.616,1c-.136.118-.292.212-.419.34a2.3,2.3,0,0,0-.463,1.624C492.244,596.909,492.177,600.27,492.254,600.27Z" transform="translate(-379.623 -482.149)" fill="#2f2e41"/><path d="M502.472,590.369a1.161,1.161,0,0,0-.606.831,4.211,4.211,0,0,1-.307,1.023c-.414.721-1.471.931-1.765,1.711a3.143,3.143,0,0,0-.118.806c-.051.56-.235,1.1-.292,1.657a7.391,7.391,0,0,0,.031,1.3l.371,4.4a5.883,5.883,0,0,1-.11,1.939,1.866,1.866,0,0,0,1.11-.184c.345-.159.662-.376,1-.56a10.288,10.288,0,0,0,1.711-.962,1.043,1.043,0,0,0,.23-.256,2.212,2.212,0,0,0,.153-.578,3.114,3.114,0,0,1,.166-.455,13.43,13.43,0,0,0,.481-1.361,7.8,7.8,0,0,0,.22-.931c.041-.256.064-.511.084-.767a4.5,4.5,0,0,1,.235-1.164,9.372,9.372,0,0,0,.54-2.793,1.46,1.46,0,0,0-.028-.409,2.192,2.192,0,0,0-.225-.468c-.154-.289-.256-.606-.389-.9a4.425,4.425,0,0,0-1.512-1.588A1.151,1.151,0,0,0,502.472,590.369Z" transform="translate(-384.946 -481.207)" fill="#2f2e41"/><path d="M469.638,614.249a2.666,2.666,0,0,1-.7-.535c-.092-.107-.169-.228-.256-.335a1.742,1.742,0,0,0-.885-.511,4.327,4.327,0,0,0-1.023-.1,1.856,1.856,0,0,0-.683.082.7.7,0,0,0-.453.486.806.806,0,0,0,.345.716,1.63,1.63,0,0,0,.688.333,5.54,5.54,0,0,0,.622.074,9.045,9.045,0,0,1,3.386,1.4q1.412.8,2.88,1.494a5.974,5.974,0,0,0,.049-.882c0-.22-.018-.558-.225-.688a4.522,4.522,0,0,0-.916-.274,14.393,14.393,0,0,1-1.844-.747A9.16,9.16,0,0,1,469.638,614.249Z" transform="translate(-359.838 -497.9)" fill="#fbbebe"/><ellipse cx="2.179" cy="2.192" rx="2.179" ry="2.192" transform="translate(112.969 105.054)" fill="#fbbebe"/><path d="M498.3,599.372a3.491,3.491,0,0,0-.422.79c-.256.552-.691,1.023-.9,1.609s-.215,1.338-.652,1.816a.637.637,0,0,0-.192.276,1.326,1.326,0,0,1-.02.2c-.064.174-.348.182-.4.361-.015.051,0,.107-.026.159-.044.115-.2.133-.3.2-.212.143-.169.476-.32.683a.575.575,0,0,1-.545.192,1.917,1.917,0,0,1-.565-.212.545.545,0,0,0-.2-.064.424.424,0,0,0-.235.082,1.45,1.45,0,0,0-.588,1.241,4.052,4.052,0,0,0,.338,1.389.559.559,0,0,0,.11.207.489.489,0,0,0,.542.041,2.546,2.546,0,0,1,.53-.238c.338-.062.667.171,1.01.151a1.405,1.405,0,0,0,.68-.3,3.758,3.758,0,0,0,.916-.767c.148-.2.256-.419.389-.629a8.105,8.105,0,0,1,.55-.734l1.258-1.535a3.546,3.546,0,0,0,.338-.465,3.29,3.29,0,0,0,.256-.7,5.4,5.4,0,0,0,.256-1.251,4.809,4.809,0,0,0-.092-1.048,3.708,3.708,0,0,0-.256-1C499.475,599.244,498.81,598.773,498.3,599.372Z" transform="translate(-380.148 -487.726)" fill="#2f2e41"/><path d="M499.125,568.307a2.456,2.456,0,0,0-1.008-2,2.918,2.918,0,0,0-2.478-2.842,2.831,2.831,0,0,0-5.578.151c-.905-.2-1.734.061-1.885.619s.489,1.279,1.443,1.535a2.69,2.69,0,0,0,.926.092,2.836,2.836,0,0,0,1.949,1.215,2.908,2.908,0,0,0,2.128,2.194,2.442,2.442,0,0,0,.657.908v.212a1.844,1.844,0,1,0,3.688,0,1.97,1.97,0,0,0-.177-.816A2.464,2.464,0,0,0,499.125,568.307Z" transform="translate(-376.599 -459.521)" fill="#f86d70"/><path d="M488.782,564.354c.151-.557.98-.824,1.885-.619a2.88,2.88,0,0,1,2.813-2.425h.187a2.768,2.768,0,0,0-.8-.12,2.88,2.88,0,0,0-2.813,2.425c-.906-.2-1.734.061-1.885.619s.489,1.279,1.443,1.535a2.82,2.82,0,0,0,.547.095C489.243,565.589,488.631,564.924,488.782,564.354Z" transform="translate(-376.591 -459.517)" opacity="0.1"/><path d="M503,584.372a1.938,1.938,0,0,1,0-.21,2.39,2.39,0,0,1-.657-.908,2.9,2.9,0,0,1-2.128-2.2,2.827,2.827,0,0,1-1.952-1.212,2.457,2.457,0,0,1-.545-.015,2.841,2.841,0,0,0,1.88,1.118,2.908,2.908,0,0,0,2.128,2.195,2.443,2.443,0,0,0,.657.908v.212a1.877,1.877,0,0,0,1.834,1.908A1.908,1.908,0,0,1,503,584.372Z" transform="translate(-383.718 -473.389)" opacity="0.1"/><ellipse cx="0.335" cy="0.448" rx="0.335" ry="0.448" transform="translate(115.34 107.54) rotate(-37.22)" fill="#fbbebe"/></g>
</svg>