<svg xmlns="http://www.w3.org/2000/svg" viewBox="0 0 481.491 206.24">
  <path d="M288.246,470.092a4.605,4.605,0,1,0-9.166.605l-13.231,17.327a6.415,6.415,0,0,0,.867,7.044l1.038,1.211,4.762-.952,5.4-4.762-.635-5.4,6.667-10.477-.009-.008a4.6,4.6,0,0,0,4.307-4.588Z" transform="translate(-182.562 -355.036)" fill="#ffb9b9"/><path d="M27.628,400.433l-2.16-8.021,29.911-12.147L58.567,392.1Z" transform="translate(-13.44 -200.67)" fill="#ffb8b8"/><path d="M97.221,633.991l-6.963-25.864.327-.088a10.426,10.426,0,0,1,12.777,7.356h0l4.253,15.8Z" transform="translate(-90.258 -430.089)" fill="#2f2e41"/><path d="M109.772,383.244l-6.718-4.885L118.7,350.121l9.915,7.21Z" transform="translate(-54.383 -184.763)" fill="#ffb8b8"/><path d="M176.933,645.634,155.271,629.88l.2-.274a10.426,10.426,0,0,1,14.563-2.3h0l13.23,9.622Z" transform="translate(-124.566 -439.394)" fill="#2f2e41"/><path d="M261.4,547.317l-16.9-16.423a8.537,8.537,0,0,0-11.178-.624L201.4,565.731l2.857,4.445,30.478-20.636,20.636,26.986,19.684-9.842Z" transform="translate(-148.909 -388.295)" fill="#2f2e41"/><path d="M279.655,569.9l-12.382-.952-8.967-2.174a4.606,4.606,0,1,0-.874,5.977v.006l5.4,2.222,23.176,7.937,2.857-2.222Z" transform="translate(-174.462 -407.381)" fill="#ffb9b9"/><path d="M161.407,378.387l-6.985,4.445h-8.255l-38.415-14.287L51.558,378.7l-1.587-12.06L101.4,344.1l45.082,14.922Z" transform="translate(-26.37 -181.585)" fill="#2f2e41"/><circle cx="12.382" cy="12.382" r="12.382" transform="translate(107.734 94.89)" fill="#ffb9b9"/><path d="M341.147,524.648a71.133,71.133,0,0,1-3.487,21.995l-.929,2.857-4.445,20.319-4.762,1.27-3.492-4.445-6.985-5.08-5.079-8.254-4.356-7.258-1.359-2.267-4.762-23.811-18.1-10.159-6.032-.952,1.27-3.492,5.4-7.3,5.4-.635,1.587-1.27,1.27.635,7,2.7,22.7-9.589,3.321.543,11.429,9.525A71.08,71.08,0,0,1,341.147,524.648Z" transform="translate(-188.995 -367.94)" fill="#ccc"/><path d="M275.449,308.922l-12.064,7.937L245.378,333.1l-1.359-2.267-3.81-19.049h.953l9.842-18.1Z" transform="translate(-126.761 -154.98)" opacity="0.1"/><path d="M240.007,289.649l-9.842,18.1-5.715,6.35-5.079,1.27,13.652,14.922,19.366-17.461,12.064-7.937Z" transform="translate(-115.764 -152.851)" fill="#ccc"/><path d="M319.389,428.447l-1.342.516a1.873,1.873,0,0,1-.5-2.6l.022-.032-2.479-.116a18.72,18.72,0,0,1,27.947-2.253c.113-.389,1.343.368,1.846,1.134.169-.633,1.322,2.425,1.73,4.587.189-.72.915.442.279,1.557.4-.059.585.973.273,1.547.441-.207.367,1.024-.112,1.847.629-.056-.054,12.908-9.5,11.964-.658-3.021-.472-2.834-1.247-6.719-.36-.383-.755-.731-1.149-1.079l-2.131-1.881c-2.478-2.188-4.733-4.887-8.034-5.7-2.269-.562-3.7-.689-2.467-3.245-1.117.466-2.16,1.159-3.287,1.592C319.253,429.2,319.411,428.8,319.389,428.447Z" transform="translate(-208.904 -330.381)" fill="#2f2e41"/><circle cx="2.222" cy="2.222" r="2.222" transform="translate(124.084 106.478)" fill="#ffb9b9"/><rect width="10.206" height="10.206" transform="translate(21.991 66.396) rotate(-86.19)" fill="#e6e6e6"/><path d="M123.424,362.131l12.366.823-.824,12.366L122.6,374.5Zm11.792,1.325-11.291-.752-.752,11.29,11.291.752Z" transform="translate(-107.325 -300.511)" fill="#ccc"/><rect width="10.206" height="10.206" transform="translate(70.241 28.159) rotate(-12.119)" fill="#e6e6e6"/><path d="M231.739,276.51l2.6,12.117-12.117,2.6-2.6-12.117Zm1.964,11.7-2.377-11.063-11.063,2.377,2.377,11.063Z" transform="translate(-158.525 -255.328)" fill="#ccc"/><rect width="10.206" height="10.206" transform="matrix(0.73, -0.684, 0.684, 0.73, 62.285, 80.913)" fill="#e6e6e6"/><path d="M234.242,375.89l-9.045,8.472-8.472-9.045,9.045-8.472Zm-9.02,7.711,8.259-7.736-7.736-8.259-8.259,7.736Z" transform="translate(-156.996 -302.998)" fill="#ccc"/><path d="M706.841,231.659H404.865a8.312,8.312,0,0,0-8.312,8.312V408.225a8.312,8.312,0,0,0,8.312,8.312H706.841a8.312,8.312,0,0,0,8.312-8.312V239.971a8.312,8.312,0,0,0-8.312-8.312Z" transform="translate(-251.893 -231.659)" fill="#3f3d56"/><rect width="296.31" height="167.149" transform="translate(155.804 14.689)" fill="#fff"/><circle cx="3.039" cy="3.039" r="3.039" transform="translate(300.666 4.052)" fill="#fff"/><path d="M541.461,198.251H329.89V31.1Z" transform="translate(-174.086 -16.413)" fill="#f2f2f2"/><circle cx="28.482" cy="28.482" r="28.482" transform="translate(173.685 112.366)" fill="#ff4c29"/><path d="M492.154,496.037a35.429,35.429,0,1,1,35.429-35.429,35.429,35.429,0,0,1-35.429,35.429Zm0-70.4A34.966,34.966,0,1,0,527.12,460.6a34.966,34.966,0,0,0-34.966-34.966Z" transform="translate(-283.647 -333.782)" fill="#3f3d56"/><rect width="27.679" height="5.784" transform="translate(355.84 101.528)" fill="#3f3d56"/><rect width="80.052" height="2.479" transform="translate(329.654 70.195)" fill="#3f3d56"/><rect width="80.052" height="2.479" transform="translate(329.654 79.933)" fill="#3f3d56"/><rect width="80.052" height="2.479" transform="translate(329.654 89.671)" fill="#3f3d56"/><rect width="11.567" height="11.567" transform="translate(419.582 24.692)" fill="#ff4c29"/><path d="M998.826,304.11H984.78V290.064h14.046Zm-13.435-.611h12.825V290.675H985.392Z" transform="translate(-562.307 -262.48)" fill="#ccc"/><path d="M709.322,607.449H680.4v-2.084a.413.413,0,0,0-.413-.413h-9.915a.413.413,0,0,0-.413.413v2.084h-6.2v-2.084a.413.413,0,0,0-.413-.413h-9.915a.413.413,0,0,0-.413.413h0v2.084h-6.2v-2.084a.413.413,0,0,0-.413-.413h-9.9a.413.413,0,0,0-.413.413h0v2.084h-6.2v-2.084a.413.413,0,0,0-.413-.413H619.26a.413.413,0,0,0-.413.413v2.084h-6.2v-2.084a.413.413,0,0,0-.413-.413H602.32a.413.413,0,0,0-.413.413h0v2.084h-6.2v-2.084a.413.413,0,0,0-.413-.413h-9.915a.413.413,0,0,0-.413.413h0v2.084h-6.2v-2.084a.413.413,0,0,0-.413-.413H500.7a.413.413,0,0,0-.413.413h0v2.084h-6.2v-2.084a.413.413,0,0,0-.413-.413H483.76a.413.413,0,0,0-.413.413h0v2.084h-6.2v-2.084a.413.413,0,0,0-.413-.413h-9.915a.413.413,0,0,0-.413.413h0v2.084h-6.2v-2.084a.413.413,0,0,0-.413-.413h-9.914a.413.413,0,0,0-.413.413h0v2.084h-6.2v-2.084a.413.413,0,0,0-.413-.413h-9.915a.413.413,0,0,0-.413.413h0v2.084h-6.2v-2.084a.413.413,0,0,0-.413-.413H416a.413.413,0,0,0-.413.413v2.084h-6.2v-2.084a.413.413,0,0,0-.413-.413h-9.915a.413.413,0,0,0-.413.413h0v2.084h-19a9.915,9.915,0,0,0-9.915,9.915v4.483a9.915,9.915,0,0,0,9.915,9.915H709.321a9.915,9.915,0,0,0,9.915-9.915v-4.483a9.915,9.915,0,0,0-9.914-9.915Z" transform="translate(-237.745 -428.65)" fill="#3f3d56"/>
</svg>