<svg xmlns="http://www.w3.org/2000/svg" viewBox="0 0 156.657 111.322">
  <g transform="translate(0)"><ellipse cx="13.307" cy="1.594" rx="13.307" ry="1.594" transform="translate(0.007 108.134)" fill="#2c394b"/><path d="M0,0H121.908V78.075H0Z" transform="translate(34.749 0.069)" fill="#2c394b"/><rect width="114.936" height="63.664" transform="translate(38.235 9.862)" fill="#334756"/><rect width="121.908" height="5.179" transform="translate(34.697)" fill="#ff4c29"/><circle cx="0.96" cy="0.96" r="0.96" transform="translate(37.586 1.688)" fill="#fff"/><circle cx="0.96" cy="0.96" r="0.96" transform="translate(41.229 1.688)" fill="#fff"/><circle cx="0.96" cy="0.96" r="0.96" transform="translate(44.873 1.688)" fill="#fff"/><path d="M742.29,281.894a.932.932,0,0,0-.034.219Z" transform="translate(-638.735 -256.004)" fill="#7f77ff"/><path d="M659.161,318.784c-.007-.16-.035-.227-.061-.235C659.118,318.7,659.136,318.82,659.161,318.784Z" transform="translate(-570.305 -286.168)" fill="#7f77ff"/><path d="M657.638,338.945c-.005.069-.01.133-.019.211A.333.333,0,0,1,657.638,338.945Z" transform="translate(-569.079 -302.951)" fill="#7f77ff"/><path d="M741.836,283.128l-.09.561C741.84,283.729,741.816,283.4,741.836,283.128Z" transform="translate(-638.315 -257.019)" fill="#7f77ff"/><path d="M770.88,253.045h.171a.878.878,0,0,0,.142-.117Z" transform="translate(-662.29 -232.168)" fill="#7f77ff"/><path d="M808.488,253.678a.2.2,0,0,1,.154-.167,1.1,1.1,0,0,0-.153-.172C808.406,253.328,808.494,253.572,808.488,253.678Z" transform="translate(-693.209 -232.505)" fill="#7f77ff"/><path d="M848.169,228.273l.061-.01Z" transform="translate(-725.891 -211.87)" fill="#7f77ff"/><path d="M847.381,228.344l.14-.023C847.474,228.327,847.422,228.335,847.381,228.344Z" transform="translate(-725.243 -211.918)" fill="#7f77ff"/><path d="M740.242,256.829a.081.081,0,0,0-.087.04C740.186,256.889,740.215,256.869,740.242,256.829Z" transform="translate(-637.006 -235.377)" fill="#7f77ff"/><path d="M896.326,229.863l.013.114a.542.542,0,0,0,.136.025Z" transform="translate(-765.52 -213.187)" fill="#7f77ff"/><path d="M654.357,362.1s0,0,0,.005,0,0,0,.005-.026.007-.045.01a.151.151,0,0,0-.03-.005c.026,0,.052-.009.073-.01C654.353,362.106,654.355,362.1,654.357,362.1Z" transform="translate(-566.336 -322.009)" fill="#7f77ff"/><path d="M543,511.191c-.683-.218,1.111-.279.083-.521C543.175,510.765,542.145,511.05,543,511.191Z" transform="translate(-474.483 -444.265)" fill="#7f77ff"/><path d="M574.9,379.852a.427.427,0,0,1-.107.154C574.843,379.892,574.873,379.857,574.9,379.852Z" transform="translate(-500.927 -336.614)" fill="#7f77ff"/><path d="M631.192,364.825a1.7,1.7,0,0,1-.279-.031Z" transform="translate(-547.11 -324.223)" fill="#7f77ff"/><path d="M553.628,384.645a.755.755,0,0,0-.288,0,.289.289,0,0,0,.063.03A.436.436,0,0,1,553.628,384.645Z" transform="translate(-483.275 -340.547)" fill="#7f77ff"/><path d="M554.966,384.709c.036.006.074.014.122.02A.928.928,0,0,0,554.966,384.709Z" transform="translate(-484.613 -340.611)" fill="#7f77ff"/><path d="M521.259,384.828c.032.019.075.033.112.049l.193-.013Z" transform="translate(-456.875 -340.709)" fill="#7f77ff"/><path d="M549.749,385.752a.024.024,0,0,1-.014.019Z" transform="translate(-480.308 -341.469)" fill="#7f77ff"/><path d="M890.148,511.566l-.121-.011C890.072,511.56,890.112,511.564,890.148,511.566Z" transform="translate(-760.336 -444.993)" fill="#7f77ff"/><path d="M899.965,480.048h0C899.963,480.056,899.964,480.054,899.965,480.048Z" transform="translate(-768.511 -419.066)" fill="#7f77ff"/><path d="M629.552,365.611a.958.958,0,0,0,.182-.054C629.86,365.591,629.687,365.589,629.552,365.611Z" transform="translate(-545.99 -324.851)" fill="#7f77ff"/><path d="M898.986,358.819c.009-.041.019-.087.031-.144C899.005,358.723,899,358.771,898.986,358.819Z" transform="translate(-767.709 -319.187)" fill="#7f77ff"/><path d="M565.909,269.2a.366.366,0,0,1,.078-.111l.024.087a1.566,1.566,0,0,0-.035-.532,5.171,5.171,0,0,0,.066-.7c.184-.1.1-.991.109-1.421-.243.035-.2-.518-.4-.014.014-.03.023.118.033.381a1.159,1.159,0,0,0,.026.184l-.023-.029c.005.282.01.651.017,1.071a1.751,1.751,0,0,1-.094-1.173c-.156-.22-.317-.464-.392-.6.34-.589.523-1.726.731-1.883-.135-1.315-.09-3.1-.547-3.926-.059-.374.132-.43.2-.57a3.143,3.143,0,0,0,.1.591c-.118-.749-.045-2.216-.366-2.395.144-.943.295.53.243-.766l.1.175c.5-2.5-.769-4.087-.191-6.823-.023.1-.043.163-.081.191.289-3.219-.272-6.636.187-9.814a2.726,2.726,0,0,0-.267-1.552l.262-.2-.3-.943c-.222-1.336.641-2.313.224-4.006l-.177.218c.035-.608-.1-1.925.1-1.823a.432.432,0,0,1-.09-.437l.137-.019-.236-1.494c.1-1.156.544.182.57-1.507-.052-.627-.4-1.786-.49-1.551-.005.253-.085.646-.222.665l-.071-.574-.076-.023v-.092h-.248a.416.416,0,0,0-.326,0h-6.212l.068-.068-.2.068h-.877c.026-.052.109-.1.282-.116-.638-.178-.565.128-1.111-.071-.061-.031-.035-.049.022-.062l-.624.107c.123-.076-.1-.255.279-.2-1.116-.208-1.8.27-2.221,0l.094-.021c-1.159.09-.669.192-.835.369h-.724l-.145-.121-.2-.163a1.379,1.379,0,0,0-.216-.163,2.025,2.025,0,0,0-.159.263c-.18-.009-.551-.028-.534-.135-.317.092-.251.12-.175.147s.184.054.055.14a3.268,3.268,0,0,0-.619-.085c-.023.385.005.851,0,1.206-.009.371-.052.61-.222.684.2.275.156-.736.3.085-.454.23.076.96-.132,1.644-.234-.2-.109-.877-.319-.17a.616.616,0,0,1,.142.246.77.77,0,0,1,.007.282,2.607,2.607,0,0,1-.14.487.855.855,0,0,0-.314-.019c.1.158-.128.191-.476.2l-.7,0c-.258,0-.523.01-.773.036a26.794,26.794,0,0,0-2.8-.286l.026-.054c-.179.319-1.133.258-1.83.324.028-.191.152-.265.53-.35l-.655,0a1.618,1.618,0,0,1-.781.192l.165-.239c-.435.007-.873.078-1.343.126-.236.024-.477.042-.731.045-.126,0-.257,0-.39-.009-.066,0-.133-.009-.2-.016l-.229-.026c-.024.055.061.123.114.192a1.559,1.559,0,0,1,.18.218.151.151,0,0,1,.016.149h-.606c0-.066.042-.125.17-.156a1.308,1.308,0,0,1-.549.036c.138-.066.3-.133.482-.2-.658-.088-.27.168-.733.149-.1-.17-.444-.121-.482-.256a3.079,3.079,0,0,0,.671,0c-.345-.017-.752-.057-1.126-.113a1.472,1.472,0,0,1-.149.478c.1.009.23.172.251.617.007.57-.045.662-.109.7-.031.017-.066.019-.1.064a.406.406,0,0,0-.047.1.7.7,0,0,0-.038.144c.118.211-.005.766.251.781,0,.255-.121.3-.191.4.113.451.033,2.1.3,1.6l.017-.116c.005.023.007.047.012.075a7.067,7.067,0,0,1,.083,1.353c-.01.378-.047.736-.081,1.052-.255-.022-.49-.042-.71-.052-.111,0-.218-.007-.326,0l-.208.005c-.073.005-.147.009-.22.012l0-.085a19.85,19.85,0,0,0-2.571.243c-.258,0-.61-.158-.5-.258a4.646,4.646,0,0,1-1.708.019c.671-.149-.232-.133.688-.109a4.38,4.38,0,0,0-2,.023c.317-.22-.653-.275-1.066-.211l.608.158a10.835,10.835,0,0,1-1.282-.007l.222-.288a6.667,6.667,0,0,0-2.438.094,7.07,7.07,0,0,1-1.086.113l-.132,0-.168-.009c-.13-.007-.262-.017-.4-.033a8.015,8.015,0,0,1-.868-.152c-.312.1.1.135.487.175s.75.085.48.2a13.845,13.845,0,0,1-1.707-.22,6.683,6.683,0,0,0-.234,1.156c-.021.227-.028.433-.028.615,0,.09,0,.177.007.256,0,.036,0,.09.007.107l.01.064a1.932,1.932,0,0,0,.14.435,2.027,2.027,0,0,1,.175,1.128c.1-.151.378-.291.473.584-.021.485-.17.75-.3.775-.075.016-.144-.045-.184-.18a.544.544,0,0,1-.026-.106c-.009-.2.024-.289.059-.282-.038-.263-.081-.61-.192-.286l.1.106a3.213,3.213,0,0,0-.066.45c-.047.466-.075,1.008-.2.816.085.528.149.347.2-.005-.109.936.012,1.518-.081,2.531.057-.172.178-.331.177-.159-.128,1.584.2.7.241,1.771-.158.61-.374-.218-.244.861-.106.66-.272.14-.355-.121a3.845,3.845,0,0,1,0,1.358c-.005.029-.009.059-.014.087l-.01.064-.007.036c0,.01,0,.009-.005.012l-.014.017a.316.316,0,0,1-.052.047.521.521,0,0,0-.069.048.354.354,0,0,0-.062-.074.115.115,0,0,1,.028.088.648.648,0,0,0,.066.038.664.664,0,0,0,.14.054c-.035.05-.037.1-.1.038a.116.116,0,0,1-.021-.019,1.237,1.237,0,0,0,.215.244c.09.092.2.191.1.282a1.082,1.082,0,0,0-.435-.017c-.036,0-.073,0-.107,0a1.372,1.372,0,0,1-.163-.019.29.29,0,0,1-.218-.125c.161.012.277.016.364.014.047,0,.064-.007.078-.019s.007-.061-.009-.1c-.029-.071-.04-.151.012-.191l-.024,0a.149.149,0,0,1-.045-.009l-.2-.019c-.045-.031.043-.057.126-.073-.094-.019-.177-.033-.249-.043a1.217,1.217,0,0,0-.435,0c-.315.074-.248.35-1.142.345.159-.152-.294-.291-.5-.258.511,0,.244.256-.224.374-.813-.12-.882.088-1.308.074l.485.057c-.165.154-.57.133-1.135.182-.016-.038.028-.059.09-.074-.584.09-1.284-.312-2.052-.163l-.022,0c-.405-.1-.04-.288-.4-.359-.981.2-1.062-.211-2.095-.047.3.208.35.158-.378.359l1.7-.146-1.09.3c.513,0,1.081-.13,1.388-.094-.52.168-.466.116-.22.288-.7-.31-1.39.182-2.2-.028l.024-.513a4.819,4.819,0,0,0-1.554.007l-.2.026-.1.012-.026,0-.04,0-.081.007-.653.05c-.438.029-.885.05-1.4.047,0,.229-.009.466-.021.714l.081-.653.064.007a.07.07,0,0,1-.031.026,3.25,3.25,0,0,1,.073.981c0,.029,0,.061,0,.092v0c0,.163-.009.333-.01.5q0,.151.005.3c0,.048.005.1.007.142l.005.068.007.047c-.172-.048-.234.272-.34.49.031-.007.047.062.057.172.01.045.016.1.028.166a.916.916,0,0,0,.244.478.429.429,0,0,1-.088.068,3.037,3.037,0,0,1-.312-.137.5.5,0,0,0-.315.036c-.022.01-.045.023-.068.035a.174.174,0,0,1-.057.019l-.071.021c-.1.029-.185.061-.274.092a3.047,3.047,0,0,1-1.324.227c.369-.185-.189-.307.634-.44-.411,0-.778-.033-.785.085a.352.352,0,0,0-.14-.021c-.206,0-.537.081-.84.118a1.425,1.425,0,0,1-.438,0,.371.371,0,0,1-.094-.028.5.5,0,0,0-.054.028.828.828,0,0,1-.636.211.044.044,0,0,1-.012-.066c-.092.071-.676.111-.3.286a5.3,5.3,0,0,0-2.026-.244,7.666,7.666,0,0,1-2.6-.175c-.447.028-.939.057-1.423.08l-.709.028-.334.01L496,255.4c.035-.026.035-.047.054-.059a.218.218,0,0,1,.133-.009c-.031,0-.052-.009-.09-.01l-.113-.009c-.073,0-.14-.005-.2-.007a2.707,2.707,0,0,0-.319.017.955.955,0,0,0-.369.114,1.023,1.023,0,0,1-.627.236,3.008,3.008,0,0,1-.028.558c-.069.151-.113.185-.142.135a1.021,1.021,0,0,1-.05-.319c-.016-.276-.01-.587-.062-.355-.281-.125-.262.537-.213,1.261.024.421.055.6.061.87a1.913,1.913,0,0,1-.1.712l-.033-.208c-.192.655.213,1.6.173,2.67,0,0-.05-.052-.085-.007a13.658,13.658,0,0,1,.461,3.148c-.22-.321-.116-.468-.34-.272.031.463.359-.135.421.787-.12.3-.225.965-.464,1.053l-.014-.87c-.308.445.012,1.124-.042,1.584l-.135-.059c.043,1.332.383,1.351.359,2.783l.1-.147c.338.783-.189.657.062,1.436l-.343.237c.083.516.331,1.807.4,2.734a13.758,13.758,0,0,1-.534-2.279,7.022,7.022,0,0,0,.194,2.006,1.809,1.809,0,0,1-.064-.671,6.293,6.293,0,0,1,.4,2.474c-.217-.059-.31.2-.355.613,0,.026-.005.052-.007.08s-.005.078-.007.118c0,.081-.007.165-.012.251,0,.173-.009.357-.014.544-.009.383-.017.785-.026,1.175a6.316,6.316,0,0,1,1.942.262l.142-.012.088-.01.17-.017q.169-.016.338-.026c.225-.016.451-.021.677-.023.452,0,.91.017,1.376.043.932.052,1.9.13,2.952.109-.745-.515.613-.014.485-.544a1.923,1.923,0,0,1,.717.009l-.071-.016.075.019v0l1.483.315c.352.154-.466.116-.421.236,1.073.042.451.225,1.159.366-.146-.189.373-.272.984-.2l-.861-.244c1.5-.282,1.3.445,2.805.165l-.478.168c.776-.1,2.859,0,3.62-.423.137.061.319.206-.023.244,1.852.064,4.122-.452,5.562-.191l-.14.13c.345-.038.6-.244,1.034-.114-.023.054-.14.13.021.137a4.225,4.225,0,0,1,1.376-.151l-.392.146a8.649,8.649,0,0,0,2.758-.223,10.877,10.877,0,0,1,1.528-.22c0,.381,1.417.506,2.128.567l-.026.054a18.832,18.832,0,0,0,2.524-.123c.643-.071,1.267-.161,1.927-.236h0l.127-.016c.152-.017.308-.033.466-.049l.149-.016.328-.026a6.769,6.769,0,0,0,1.691.239c1.355.066,3.06.012,4.349.166-.3-.069.049-.3.393-.336.428.073,1.163-.224,1.192.028a.171.171,0,0,1,0,.057l-.154-.007h-.009l0,0c.345.341,1.28.251,2.012.26l.12-.457c1.915.665,5.016-.244,6.061.352.463-.114,1.034-.113,1.492-.227l-.024.244a32.756,32.756,0,0,0,3.5.035l-.322.177c.892.016,1.126-.709,1.951-.723l.246.366a22.268,22.268,0,0,0,4.671-.016c-.024.054-.071.159-.322.175.709.009,2.7.232,2.587-.208.17.248,1.632-.023,2.427-.159l-.13.241c.355-.154.537-.253.755-.322a2.516,2.516,0,0,1,.379-.088c.08-.012.156-.024.265-.035l.449-.033c.3.029.348.163,0,.144a2.241,2.241,0,0,0,.781-.035,2.252,2.252,0,0,1,.665-.106,4.406,4.406,0,0,1,.028-.522c.052.2.1.414.154.639a5.876,5.876,0,0,0-.047-1.111c-.042-.222-.107-.386-.2-.693-.007-.042-.012-.087-.016-.133s-.007-.087-.01-.133c0-.076-.005-.159,0-.243a3.91,3.91,0,0,1,.05-.515,1.129,1.129,0,0,1,.258-.677,1.33,1.33,0,0,1-.25-1.024c.083-.064.135.107.159.2.165-1.346-.281-2-.043-2.928a.2.2,0,0,0,.144-.156c-.005.981-.017,1.785-.033,1.849.22-.012.26-.859.565-.177A8.713,8.713,0,0,1,565.909,269.2Zm.2-1.793c.035.288-.014.383-.064.423,0-.135-.012-.295-.03-.5-.009-.007-.019-.024-.029-.033a.331.331,0,0,1,.123.113Zm-9.918-39.654a.381.381,0,0,1,.083.038H555.9c.088-.014.182-.026.284-.038Z" transform="translate(-434.318 -211.11)" fill="#ff4c29"/><path d="M655.152,362.622a.064.064,0,0,1-.043.021A.145.145,0,0,1,655.152,362.622Z" transform="translate(-567.021 -322.435)" fill="#7f77ff"/><path d="M629.328,365.867l.04-.008Z" transform="translate(-545.806 -325.099)" fill="#7f77ff"/><path d="M899.716,450.11a.9.9,0,0,1-.018-.118c-.022.059-.04.114-.055.171l.076.1Z" transform="translate(-768.25 -394.333)" fill="#7f77ff"/><path d="M742.448,281.522a.247.247,0,0,1,.035-.08c-.012.025-.019.025-.029.042Z" transform="translate(-638.893 -255.631)" fill="#7f77ff"/><path d="M810.317,226.518c.078,0,.167.115.15.944l.052-1.019.383.018c-.309-.094-.819-.221-.113-.243l-.56-.065C810.171,226.642,810.239,226.52,810.317,226.518Z" transform="translate(-694.652 -210.134)" fill="#7f77ff"/><path d="M810.021,251.291c-.022-.194-.056-.2-.091-.177s-.072.074-.1.05C809.917,251.395,809.938,251.506,810.021,251.291Z" transform="translate(-694.343 -230.668)" fill="#7f77ff"/><path d="M714.957,292.721l.06-.222C714.555,292.532,715.013,292.586,714.957,292.721Z" transform="translate(-616.148 -264.731)" fill="#7f77ff"/><path d="M511.393,155.492l.038,0,.071-.006.285-.024.2-.032-.386.04-.193.02-.315.02.237-.012Z" transform="translate(-420.584 -127.902)" fill="#7f77ff"/><path d="M527.378,383.547l.14.273C527.83,383.771,527.9,383.464,527.378,383.547Z" transform="translate(-461.91 -339.643)" fill="#7f77ff"/><path d="M494.445,462.512a1.3,1.3,0,0,0-.09,1.022A9.435,9.435,0,0,0,494.445,462.512Z" transform="translate(-434.683 -404.635)" fill="#7f77ff"/><path d="M600.654,378.4l.687-.076-.323-.015Z" transform="translate(-494.282 -311.313)" fill="#7f77ff"/><path d="M697.908,316.24a26.307,26.307,0,0,1-.875,6.224c-2.1,7.762-7.846,13.411-10.942,15.994a6.768,6.768,0,0,1-1.691-.239l-.328.026-.149.016c-.158.016-.314.031-.466.049l-.127.016h0a39.323,39.323,0,0,1-2.143-8.111l0,0v0a29.146,29.146,0,0,1,.506-11.9,25.933,25.933,0,0,1,1.994-5.1,37.109,37.109,0,0,1,10.99-12.47A37.307,37.307,0,0,1,697.908,316.24Z" transform="translate(-588.165 -271.519)" fill="#eee"/><path d="M657.638,338.945c-.005.069-.01.133-.019.211A.333.333,0,0,1,657.638,338.945Z" transform="translate(-569.079 -302.951)" fill="#fff"/><path d="M629.552,365.611a.958.958,0,0,0,.182-.054C629.86,365.591,629.687,365.589,629.552,365.611Z" transform="translate(-545.99 -324.851)" fill="#fff"/><path d="M630.912,364.794l.279.031A1.706,1.706,0,0,1,630.912,364.794Z" transform="translate(-547.109 -324.223)" fill="#fff"/><path d="M654.306,362.124a.15.15,0,0,0-.029-.005c.026,0,.052-.009.073-.01,0,0,.005-.005.007-.005s0,0,0,.005,0,0,0,.005S654.325,362.121,654.306,362.124Z" transform="translate(-566.336 -322.009)" fill="#fff"/><path d="M655.152,362.622a.064.064,0,0,1-.043.021A.145.145,0,0,1,655.152,362.622Z" transform="translate(-567.021 -322.435)" fill="#fff"/><path d="M633.461,346.1s0,.007,0,.01a39.275,39.275,0,0,1-2.116,8.034l-.149.016c-.158.016-.314.031-.466.048l-.127.016h0c-.66.074-1.284.165-1.927.236-3.065-2.535-8.935-8.23-11.061-16.1a26.213,26.213,0,0,1-.877-6.226,31.919,31.919,0,0,1,.172-4.115c.768-.149,1.468.253,2.052.163-.062.016-.106.036-.09.075.565-.049.97-.028,1.135-.182l-.485-.057c.426.014.5-.194,1.308-.074.468-.118.735-.371.224-.374.206-.033.66.106.5.258.894.005.827-.27,1.142-.345h.435c.073.01.156.024.25.043-.083.016-.172.042-.126.073l.2.019a.146.146,0,0,0,.045.009l.024,0c-.052.04-.042.12-.012.191.016.042.033.081.009.1s-.031.019-.078.019c-.087,0-.2,0-.364-.014a.29.29,0,0,0,.218.125,1.376,1.376,0,0,0,.163.019c.035,0,.071,0,.107,0a1.08,1.08,0,0,1,.435.017c.1-.092-.005-.191-.1-.282a1.235,1.235,0,0,1-.215-.244.118.118,0,0,0,.021.019c.068.062.069.012.1-.038a.664.664,0,0,1-.14-.054h.126v-.277c.005-.028.009-.057.014-.087a3.843,3.843,0,0,0,0-1.358c.083.262.25.781.355.121-.13-1.079.087-.251.244-.861-.045-1.073-.369-.187-.241-1.771,0-.172-.12-.012-.177.159.094-1.014-.028-1.6.081-2.531-.05.352-.114.534-.2.005.123.192.151-.35.2-.816l.123.118c.061.059.123.12.184.18a34.79,34.79,0,0,1,6.574,8.75h0a25.767,25.767,0,0,1,2,5.094A29.156,29.156,0,0,1,633.461,346.1Z" transform="translate(-535.436 -287.421)" fill="#eee"/><path d="M574.9,379.852a.427.427,0,0,1-.107.154C574.843,379.892,574.873,379.857,574.9,379.852Z" transform="translate(-500.927 -336.614)" fill="#3f3d56"/><path d="M549.749,385.752a.024.024,0,0,1-.014.019Z" transform="translate(-480.308 -341.469)" fill="#3f3d56"/><path d="M564.779,396.223l-.126.016h0c-.66.074-1.284.165-1.927.236a18.817,18.817,0,0,1-2.525.123l.026-.054c-.71-.061-2.131-.185-2.128-.567a10.863,10.863,0,0,0-1.528.22,30.055,30.055,0,0,1-11.684-6.761c-5.034-4.9-7.305-11.443-8.3-15.66a5.3,5.3,0,0,1,2.025.244c-.372-.175.211-.215.3-.286a.044.044,0,0,0-.009.036.045.045,0,0,0,.021.03.829.829,0,0,0,.636-.211h1.426v-.118a.353.353,0,0,1,.14.021c.007-.118.374-.087.785-.085-.823.133-.265.255-.634.44a3.047,3.047,0,0,0,1.324-.227c.088-.031.179-.062.274-.092l.071-.021a.172.172,0,0,0,.057-.019c.023-.012.045-.024.068-.035a.5.5,0,0,1,.315-.036,3.008,3.008,0,0,0,.312.137.424.424,0,0,0,.088-.068.917.917,0,0,1-.244-.478c-.012-.066-.017-.121-.028-.166-.01-.109-.026-.178-.057-.172.106-.218.168-.539.34-.49l-.007-.047-.005-.068c0-.047-.005-.094-.007-.142q-.005-.146-.005-.3c0-.17.007-.34.01-.5a34.139,34.139,0,0,1,7,3.027,26.326,26.326,0,0,1,5.186,3.893,29.157,29.157,0,0,1,6.534,10.079v0l0,0A39.249,39.249,0,0,1,564.779,396.223Z" transform="translate(-469.487 -329.432)" fill="#3f3d56"/><path d="M743.233,513.169h.009l-.007,0Z" transform="translate(-639.539 -446.321)" fill="#3f3d56"/><path d="M727.342,362.231s-.984,12.049-9.034,19.886a30.085,30.085,0,0,1-11.784,6.794c-.029-.251-.764.045-1.192-.028-.345.038-.691.267-.393.336-1.289-.154-2.994-.1-4.349-.166a6.773,6.773,0,0,1-1.691-.239l-.327.026-.149.016a39.374,39.374,0,0,1,2.266-8.06,29.216,29.216,0,0,1,6.532-10.067,26.3,26.3,0,0,1,5.186-3.893A37.343,37.343,0,0,1,727.342,362.231Z" transform="translate(-602.664 -322.114)" fill="#3f3d56"/><path d="M190.4,322.964s-2.413,4.827-6.143,5.924,9,0,9,0-.658-3.51.219-3.949S190.4,322.964,190.4,322.964Z" transform="translate(-178.988 -289.801)" fill="#a0616a"/><path d="M198.583,265.574a1.9,1.9,0,0,1,1.4-2.258l.031,0a1.32,1.32,0,0,0-.341-.006,2.146,2.146,0,0,0,.445,4.143A2.028,2.028,0,0,1,198.583,265.574Z" transform="translate(-191.074 -240.703)" fill="#2f2e41"/><path d="M196.984,274.416a1.9,1.9,0,0,1-1.446-2.227c0-.01.008-.019.012-.028a1.318,1.318,0,0,0-.15.306,2.146,2.146,0,0,0,3.937,1.365A2.028,2.028,0,0,1,196.984,274.416Z" transform="translate(-188.665 -247.995)" fill="#2f2e41"/><path d="M162.076,395.475l.322,9.292,5.046,11.847s-1.316,6.143,1.316,5.924.219-6.143.219-6.143l-2.413-12.505-.439-10.311Z" transform="translate(-161.302 -347.91)" fill="#a0616a"/><circle cx="4.827" cy="4.827" r="4.827" transform="translate(10.092 26.801)" fill="#a0616a"/><path d="M182.658,352.538l-4.757-1.9s-.948.145-3.58.365a16.755,16.755,0,0,1-3.8.012s-5.632,1.962-5.413,3.059,2.633,18.429,3.73,17.551a6.583,6.583,0,0,1,1.755-1.1l12.067-1.1Z" transform="translate(-163.791 -312.573)" fill="#cfcce0"/><path d="M159.9,367.562h-.714a1.923,1.923,0,0,0-.822,1.755c0,1.316-.658,5.265-.658,5.265h3.51Z" transform="translate(-157.702 -326.501)" fill="#cfcce0"/><path d="M178.673,355.914l-2.65-4.281a.6.6,0,0,0-.583-.279l-.691.086a.6.6,0,0,0-.5.75l1.357,5.04s2.145,8.9.085,13.666l-.085,2.13s-1.975,6.582-1.536,11.628.658,9.434.658,9.434-1.1,3.291-.658,4.388a2.566,2.566,0,0,1,0,1.337,44.3,44.3,0,0,0-.691,9.664l.029,1.066s-1.536,1.316-.219,1.536,5.485.658,5.485.658.878-1.536.439-1.755l1.316-7.24s2.194-3.072,1.975-5.046c0,0,.658-3.291,0-4.827l.219-9.653.878,11.628-1.316,14.48s-1.755,1.316-.658,1.755,7.9,2.633,7.9,1.536a2.221,2.221,0,0,0-.439-1.536l2.852-29.618L190.3,370.174s-10.311-.878-9.434-12.505c0,0,2.523-5.239,5.013-6.228a.143.143,0,0,0-.01-.272l-1.011-.289a.138.138,0,0,0-.084,0A11.552,11.552,0,0,0,178.673,355.914Z" transform="translate(-170.007 -312.768)" fill="#2f2e41"/><path d="M222.668,695.238l-.035.315a14.521,14.521,0,0,1-1.918,5.691,3.769,3.769,0,0,0-.679,2.55,4.982,4.982,0,0,1,.219,2.413h3.51v-.658l1.96.535a2.171,2.171,0,0,0,1.331-.041,1.2,1.2,0,0,0,.878-1.152,2.114,2.114,0,0,0-.908-1.468,6.516,6.516,0,0,1-2.139-3.269l-.025-.09,1.316-4.827Z" transform="translate(-208.956 -596.147)" fill="#2f2e41"/><path d="M171.255,695.858l-.035.316a14.521,14.521,0,0,1-1.918,5.691,3.769,3.769,0,0,0-.679,2.55,4.982,4.982,0,0,1,.219,2.413h3.51v-.658l1.96.534a2.171,2.171,0,0,0,1.331-.041,1.2,1.2,0,0,0,.878-1.152,2.114,2.114,0,0,0-.908-1.468,6.517,6.517,0,0,1-2.139-3.269l-.025-.09,1.316-4.827Z" transform="translate(-166.648 -596.657)" fill="#2f2e41"/><path d="M203.872,282.008s3.458-2,4.8-2.119a2.2,2.2,0,0,0-.031-1.722s-.2-2.709-3.586-2.6c0,0-3.994-2.164-5.335-1.28s-4.327,5.123-3.066,7.656c0,0-1.458.734-1.527.339s-1.153.666.278,1.579c0,0-2,2.026-.056,3.294,0,0-.089-1.8,1.04-2.34s.141.027.141.027-1.932,2.421.954,3.364a1.669,1.669,0,0,1,.006-2.287s-.336,2.477,1.66,2.738c0,0-1.029-1.471-.488-2,0,0,.23,1.824,1.356,2.044l.845.164.286-1.47s-.8,1.878,1.075,1.989c0,0-.908-2.846.294-4.519A7.089,7.089,0,0,0,203.872,282.008Z" transform="translate(-187.979 -249.566)" fill="#2f2e41"/><ellipse cx="2.084" cy="1.645" rx="2.084" ry="1.645" transform="matrix(0.604, -0.797, 0.797, 0.604, 6.645, 25.933)" fill="#2f2e41"/><path d="M212.536,277.771a2.436,2.436,0,0,0-1.094.828,2.482,2.482,0,0,0-.48,1.1,2.437,2.437,0,0,0,1.094-.828A2.482,2.482,0,0,0,212.536,277.771Z" transform="translate(-201.53 -252.611)" fill="#ff4c29"/><path d="M313.141,436.154l-.279-.372,2.023-1.516a1.709,1.709,0,0,0,.67-1.574l-1-8.092a3.368,3.368,0,0,1,1.32-3.1l2.2-1.652a1.972,1.972,0,0,1,2.758.4l.511.681-.372.279-.511-.681a1.507,1.507,0,0,0-2.107-.3l-2.2,1.652a2.9,2.9,0,0,0-1.137,2.673l1,8.092a2.175,2.175,0,0,1-.852,2Z" transform="translate(-285.385 -369.201)" fill="#cfcce0"/><path d="M104.231,368.387l1.649-2.172-.557-.744-2.473,1.073L92.055,374l1.911,2.55Z" transform="translate(-75.753 -300.748)" fill="#cfcce0"/><rect width="5.178" height="18.688" rx="2.589" transform="translate(33.14 52.881) rotate(-36.846)" fill="#e6e6e6"/><path d="M406.232,493.174l-.3-.4-.06-.08a1.288,1.288,0,0,1-.258,1.8l-2.083,1.561a1.288,1.288,0,0,1-1.8-.258l.06.08.3.4a1.288,1.288,0,0,0,1.8.258l2.083-1.561A1.288,1.288,0,0,0,406.232,493.174Z" transform="translate(-358.514 -429.474)" opacity="0.2"/><path d="M392.106,447.208c-.018-.018-.033-.032-.034-.024C392.089,447.2,392.1,447.21,392.106,447.208Z" transform="translate(-350.566 -392.02)" fill="#7f77ff"/><path d="M390.328,444.266a.048.048,0,0,0-.018-.031Z" transform="translate(-349.117 -389.595)" fill="#7f77ff"/><path d="M403.691,462.861c-.019.006.018.047.042.087Z" transform="translate(-360.124 -404.923)" fill="#7f77ff"/><path d="M409.47,470.267l.017.023a.161.161,0,0,0,.033,0Z" transform="translate(-364.883 -411.017)" fill="#7f77ff"/><path d="M413.107,475.623a.087.087,0,0,1,.063.027.063.063,0,0,0,.021-.031C413.176,475.6,413.131,475.618,413.107,475.623Z" transform="translate(-367.876 -415.413)" fill="#7f77ff"/><path d="M424.343,491.361l-.01.017a.129.129,0,0,0,.02.02Z" transform="translate(-377.115 -428.375)" fill="#7f77ff"/><path d="M386.84,439l0,0C386.864,439.028,386.854,439.016,386.84,439Z" transform="translate(-346.261 -385.29)" fill="#7f77ff"/><path d="M353.737,449.463c-.034-.119.158.116.094-.053C353.824,449.435,353.674,449.33,353.737,449.463Z" transform="translate(-319.007 -393.841)" fill="#7f77ff"/><path d="M378.032,427.549a.072.072,0,0,0,0,.034S378.035,427.571,378.032,427.549Z" transform="translate(-339.011 -375.864)" fill="#7f77ff"/><path d="M373.093,424.236a.284.284,0,0,0-.073.066l.013,0A.162.162,0,0,1,373.093,424.236Z" transform="translate(-334.888 -373.138)" fill="#7f77ff"/><path d="M368.854,428.414l.021-.005.022-.023Z" transform="translate(-331.46 -376.552)" fill="#7f77ff"/><path d="M362.237,435.3c-.027.033-.081.077-.105.062l.048-.086-.01-.013.009-.012-.688-.918h.018l-.032-.019-.087-.116c.011,0,.025,0,.046.022-.035-.108-.078-.061-.1-.159,0-.012,0-.01.013,0l-.081-.071c.025.007.031-.045.061.013-.079-.177-.227-.211-.225-.3l.013.01c-.132-.146-.1-.067-.145-.067l-.073-.1.019-.127-.059.012c-.015-.023-.043-.068-.02-.073-.09-.058-.009.028-.072,0-.039-.134-.234-.273-.182-.348-.061-.013.049.119-.057.025.05-.087-.109-.119-.146-.24.06,0,.107.106.07-.015-.108-.009-.125-.2-.2-.267-.054.035-.152-.158-.27-.28a3.736,3.736,0,0,0-.237-.414l.011,0c-.07.015-.157-.122-.238-.208.034-.02.059-.012.111.029l-.066-.088a.239.239,0,0,1-.111-.082l.056-.007a2.114,2.114,0,0,1-.311-.374c-.029.013-.025.1-.063.106l-.06-.08a.045.045,0,0,1,.052.013c-.013-.012-.053-.037-.065-.071l.081.039c-.037-.08-.055-.015-.093-.073.029-.02-.011-.056.017-.064.013.012.024.057.051.07a.462.462,0,0,1-.079-.194c-.012.017-.038.028-.075-.015-.09-.116,0-.066-.034-.145-.041-.014-.077-.1-.12-.075-.026-.035-.011-.056-.01-.077-.064-.047-.218-.281-.211-.179l.009.018-.009-.009a6.612,6.612,0,0,1-.453-.617l.014-.01a2.853,2.853,0,0,0-.3-.318c-.026-.035-.036-.1-.008-.1a.649.649,0,0,1-.176-.229c.092.073,0-.048.088.08-.076-.126-.073-.17-.206-.267.068.016-.021-.122-.074-.17l.036.1a1.513,1.513,0,0,1-.129-.174l.07-.005c-.123-.283-.422-.36-.464-.615-.081-.039.075.148-.007.12a1.978,1.978,0,0,1-.121-.316c-.087-.171-.175-.09-.276-.262,0,.033-.032.086-.137-.021-.077-.115-.031-.189.034-.129.021.025.026.042.019.045.033.031.075.073.061.015l-.028,0c-.024-.068-.14-.219-.085-.2-.079-.072-.054-.015-.017.053-.082-.16-.165-.222-.258-.381.008.03,0,.066-.013.043-.14-.23-.1-.07-.219-.21-.036-.1.083-.016-.048-.146-.05-.1.03-.052.071-.027a1.023,1.023,0,0,1-.216-.345l.066.06a.673.673,0,0,1-.091-.105l0,.065c-.025-.046-.051-.081-.036-.09-.054-.026-.032.074-.125.013-.024-.068-.144-.153-.113-.206.114.184.031-.053.147.088a.4.4,0,0,1-.077-.1c0-.01.014,0,.025.008-.084-.2-.107-.038-.235-.21.041,0,.018-.075-.008-.1.051.069-.017.064-.084.016-.063-.124-.1-.108-.145-.168l.04.073c-.042,0-.08-.061-.145-.131.015-.021.066.059.054.026-.108-.052-.1-.226-.217-.322-.024-.068.043-.041.019-.1-.132-.108-.073-.17-.2-.289,0,.066.01.066-.1-.007l.2.212-.16-.11c.051.07.131.13.156.176-.08-.049-.066-.049-.07.006-.02-.133-.17-.166-.218-.3l.086-.059c-.086-.193-.262-.26-.4-.49l.037.08c-.055,0-.1-.129-.169-.188.033-.015.011-.065.006-.108-.018.019-.115-.158-.186-.135l-.035-.123c-.106-.173-.249-.166-.388-.371.029.007.028-.02.034-.037s.018-.021.091.053c-.066-.088-.125-.178-.131-.145a.158.158,0,0,0-.018-.031l-.012-.016s-.01.009-.016.013l-.075.092a.49.49,0,0,1-.14.141c-.025.046-.017.089-.089.155-.012,0-.011-.014-.011-.014,0,.022-.077.107,0,.088-.228.068-.427.414-.629.467-.1.109-.232.237-.335.328,0-.014-.011-.014.011-.028-.164.1-.022.153-.211.262-.12.027.068-.1,0-.069-.1-.07-.188.178-.344.215l.023-.027c-.109.039-.182.2-.33.3,0,0,0-.013-.01-.014a1.7,1.7,0,0,1-.37.39c.018-.068.05-.065,0-.083-.059.05.061.046-.058.147-.055.009-.159.056-.2.024l.118-.086c-.1-.008-.154.109-.223.143l-.007-.028c-.179.133-.145.191-.349.318l.032,0c-.074.129-.114.025-.2.138l-.07-.039a3.4,3.4,0,0,1-.355.3,2.192,2.192,0,0,1,.276-.286.981.981,0,0,0-.27.2c.027-.023.056-.06.09-.068a.835.835,0,0,1-.326.274c-.012-.07-.161,0-.342.086l-.068.033-.035.017c-.011.006-.029.01-.015.022.028.04.054.079.078.116a.544.544,0,0,1,.088.2l.113.129q.038.043.072.089c.046.061.089.125.132.191.086.132.172.273.281.413.009-.164.065.081.138,0,.054.061.072.087.071.1l-.007-.016.007.017h0l.1.239c.01.066-.066-.049-.081-.028.1.15.009.088.058.2.016-.043.082.017.132.109l-.047-.146c.2.168.059.23.257.4l-.076-.044c.095.093.289.387.436.438,0,.026,0,.068-.042.027a7.839,7.839,0,0,1,.595.729l-.035,0c.041.042.1.051.123.126-.011,0-.035,0-.02.02a.6.6,0,0,1,.164.168l-.064-.035c.155.265.339.331.507.525-.063.046.061.254.123.357l-.011,0a6.883,6.883,0,0,0,.636.69,7.387,7.387,0,0,0,.546.867c-.019-.049.054-.03.095.012.034.071.171.138.107.171l-.015-.023c-.021.089.089.2.161.3l.087-.04c.085.34.548.648.557.863.066.048.123.126.188.174l-.043.027a4.6,4.6,0,0,0,.349.478l-.061-.022c.088.123.23.066.316.175l-.035.078a3.123,3.123,0,0,0,.476.63c-.011,0-.033.01-.061-.022.073.1.247.414.3.316-.052.043.158.221.266.317l-.053.012a.546.546,0,0,1,.253.174c.019.036-.011.052-.032,0,.059.121.1.054.174.2l-.061-.029a.265.265,0,0,0,.16.13c.067.057.145.214.121.257a.2.2,0,0,1,.144.108c-.007.019-.033,0-.046-.007.11.2.249.236.3.391a.038.038,0,0,0-.008.039c-.107-.145-.193-.264-.182-.255-.036.027.045.149-.075.094a1.241,1.241,0,0,1,.346.316.066.066,0,0,1,0,.025l-.013-.009a.22.22,0,0,0,.06.068.724.724,0,0,0,.06.1c-.02.036.084.146.126.205.036-.035.087.046.066-.05,0,.011-.013-.007-.044-.045a.161.161,0,0,0-.023-.022h.006l-.111-.143a.25.25,0,0,1,.134.147c.048.011.1.024.125.033,0,.121.089.3.071.345.078.081.16.183.243.271a1.593,1.593,0,0,0,.126.123.465.465,0,0,0,.145.105.16.16,0,0,1,.046.079c.007.026.018.023.031.031a.169.169,0,0,1-.04.018l-.026-.029a.174.174,0,0,0-.045-.04c.035.023.059.109.127.055l.176-.072a.6.6,0,0,0,.117-.059c.025-.018.042-.035.043-.053.16-.032-.063.09.139,0l-.021.03c.453-.068.585-.427,1.066-.543-.033.009-.05.014-.061.007a12.282,12.282,0,0,0,1.4-.932c.132-.085.114-.131.163-.216l.061.017.077-.154c.131-.19.376-.183.512-.455l-.052,0c.077-.07.2-.259.223-.218a.065.065,0,0,1,.035-.068l.023.016c.044-.074.084-.151.126-.226.14-.14.069.1.252-.128C362.212,435.48,362.277,435.281,362.237,435.3Zm-.952-1.253a.047.047,0,0,1,0,.015l-.035-.047.034.032Zm-4.3,3.572H357a.062.062,0,0,1-.031,0c-.035-.035-.037-.053-.032-.065.014.018.032.038.056.064Z" transform="translate(-314.961 -372.276)" fill="#ff4c29"/><path d="M395.413,504.762l.015.014a.269.269,0,0,0-.008-.03l-.023,0Z" transform="translate(-353.303 -439.386)" fill="#7f77ff"/><path d="M404.047,463.543a.038.038,0,0,1,0,.015.041.041,0,0,1,0-.009Z" transform="translate(-360.421 -405.484)" fill="#7f77ff"/><path d="M416.089,479.455c-.1-.225,0,.065-.147-.137l.1.16C416.039,479.439,416.034,479.389,416.089,479.455Z" transform="translate(-370.209 -418.465)" fill="#7f77ff"/><path d="M414.04,476.318c-.053-.041-.065-.051-.034.02C414.074,476.414,414.028,476.321,414.04,476.318Z" transform="translate(-368.602 -415.97)" fill="#7f77ff"/><path d="M399.775,457.281l.042-.019C399.765,457.2,399.8,457.272,399.775,457.281Z" transform="translate(-356.905 -400.296)" fill="#7f77ff"/><path d="M237.84,315.364l-.091-.095.066.071Z" transform="translate(-195.645 -259.437)" fill="#7f77ff"/><path d="M369.449,427.514l.055.025C369.536,427.5,369.5,427.443,369.449,427.514Z" transform="translate(-331.95 -375.807)" fill="#7f77ff"/><path d="M355.226,438.493a1.06,1.06,0,0,0,.155-.075A.188.188,0,0,0,355.226,438.493Z" transform="translate(-320.246 -384.809)" fill="#7f77ff"/><path d="M217.624,343.108l.082.084-.03-.045Z" transform="translate(-179.084 -282.346)" fill="#7f77ff"/><path d="M247.556,391.758l.322,9.293,5.046,11.847s-1.316,6.143,1.316,5.924.219-6.143.219-6.143l-2.413-12.505-.439-10.312Z" transform="translate(-231.643 -344.851)" fill="#a0616a"/><path d="M90.152,224.295l.121-.829.976.39,3.072,4.827-6.362,3.291Z" transform="translate(-72.381 -183.891)" fill="#cfcce0"/></g>
</svg>